<?xml version="1.0" encoding="utf-8" standalone="no"?>
<!DOCTYPE svg PUBLIC "-//W3C//DTD SVG 1.1//EN"
  "http://www.w3.org/Graphics/SVG/1.1/DTD/svg11.dtd">
<svg xmlns:xlink="http://www.w3.org/1999/xlink" width="460.8pt" height="345.6pt" viewBox="0 0 460.8 345.6" xmlns="http://www.w3.org/2000/svg" version="1.1">
 <metadata>
  <rdf:RDF xmlns:dc="http://purl.org/dc/elements/1.1/" xmlns:cc="http://creativecommons.org/ns#" xmlns:rdf="http://www.w3.org/1999/02/22-rdf-syntax-ns#">
   <cc:Work>
    <dc:type rdf:resource="http://purl.org/dc/dcmitype/StillImage"/>
    <dc:date>2024-08-19T22:43:01.246898</dc:date>
    <dc:format>image/svg+xml</dc:format>
    <dc:creator>
     <cc:Agent>
      <dc:title>Matplotlib v3.8.0, https://matplotlib.org/</dc:title>
     </cc:Agent>
    </dc:creator>
   </cc:Work>
  </rdf:RDF>
 </metadata>
 <defs>
  <style type="text/css">*{stroke-linejoin: round; stroke-linecap: butt}</style>
 </defs>
 <g id="figure_1">
  <g id="patch_1">
   <path d="M 0 345.6 
L 460.8 345.6 
L 460.8 0 
L 0 0 
L 0 345.6 
z
" style="fill: none"/>
  </g>
  <g id="axes_1">
   <g id="QuadContourSet_1">
    <path d="M 277.40736 139.147272 
L 276.276709 138.60288 
L 276.0768 138.505355 
L 274.74624 137.613267 
L 274.347577 137.27232 
L 273.41568 136.340423 
L 273.074733 135.94176 
L 272.182645 134.6112 
L 272.08512 134.411291 
L 271.540728 133.28064 
L 271.127776 131.95008 
L 270.91144 130.61952 
L 270.86656 129.28896 
L 270.988188 127.9584 
L 271.291206 126.62784 
L 271.805442 125.29728 
L 272.08512 124.771064 
L 272.548305 123.96672 
L 273.41568 122.836979 
L 273.598757 122.63616 
L 274.74624 121.566187 
L 275.113462 121.3056 
L 276.0768 120.662764 
L 277.40736 120.046359 
L 277.641893 119.97504 
L 278.73792 119.6216 
L 280.06848 119.392239 
L 281.39904 119.344659 
L 282.7296 119.473881 
L 284.06016 119.791676 
L 284.544772 119.97504 
L 285.39072 120.295206 
L 286.72128 121.039781 
L 287.089393 121.3056 
L 288.05184 122.086814 
L 288.601186 122.63616 
L 289.3824 123.598607 
L 289.648219 123.96672 
L 290.392794 125.29728 
L 290.71296 126.143228 
L 290.896324 126.62784 
L 291.214119 127.9584 
L 291.343341 129.28896 
L 291.295761 130.61952 
L 291.0664 131.95008 
L 290.71296 133.046107 
L 290.641641 133.28064 
L 290.025236 134.6112 
L 289.3824 135.574538 
L 289.121813 135.94176 
L 288.05184 137.089243 
L 287.851021 137.27232 
L 286.72128 138.139695 
L 285.916936 138.60288 
L 285.39072 138.882558 
L 284.06016 139.396794 
L 282.7296 139.699812 
L 281.39904 139.82144 
L 280.06848 139.77656 
L 278.73792 139.560224 
L 277.40736 139.147272 
z
" clip-path="url(#pa64de4f9ef)" style="fill: none; stroke-dasharray: 5.55,2.4; stroke-dashoffset: 0; stroke: #3c3c3c; stroke-width: 1.5"/>
    <path d="M 278.73792 160.006747 
L 278.326184 159.89184 
L 277.40736 159.644427 
L 276.0768 159.23094 
L 274.74624 158.758392 
L 274.252136 158.56128 
L 273.41568 158.235138 
L 272.08512 157.652967 
L 271.21817 157.23072 
L 270.75456 157.00762 
L 269.424 156.301007 
L 268.737192 155.90016 
L 268.09344 155.524318 
L 266.76288 154.672219 
L 266.613789 154.5696 
L 265.43232 153.745377 
L 264.761853 153.23904 
L 264.10176 152.729205 
L 263.111811 151.90848 
L 262.7712 151.616898 
L 261.630032 150.57792 
L 261.44064 150.398103 
L 260.289897 149.24736 
L 260.11008 149.057968 
L 259.071102 147.9168 
L 258.77952 147.576189 
L 257.958795 146.58624 
L 257.44896 145.926147 
L 256.942623 145.25568 
L 256.1184 144.074211 
L 256.015781 143.92512 
L 255.163682 142.59456 
L 254.78784 141.950808 
L 254.386993 141.264 
L 253.68038 139.93344 
L 253.45728 139.46983 
L 253.035033 138.60288 
L 252.452862 137.27232 
L 252.12672 136.435864 
L 251.929608 135.94176 
L 251.45706 134.6112 
L 251.043573 133.28064 
L 250.79616 132.361816 
L 250.681253 131.95008 
L 250.363379 130.61952 
L 250.097235 129.28896 
L 249.880671 127.9584 
L 249.711924 126.62784 
L 249.589641 125.29728 
L 249.512879 123.96672 
L 249.481098 122.63616 
L 249.494139 121.3056 
L 249.552188 119.97504 
L 249.655747 118.64448 
L 249.805578 117.31392 
L 250.002668 115.98336 
L 250.248178 114.6528 
L 250.5434 113.32224 
L 250.79616 112.341942 
L 250.88794 111.99168 
L 251.280276 110.66112 
L 251.727507 109.33056 
L 252.12672 108.267598 
L 252.23015 108 
L 252.787282 106.66944 
L 253.406112 105.33888 
L 253.45728 105.235019 
L 254.08624 104.00832 
L 254.78784 102.755786 
L 254.833608 102.67776 
L 255.652346 101.3472 
L 256.1184 100.636844 
L 256.547747 100.01664 
L 257.44896 98.784192 
L 257.525105 98.68608 
L 258.595591 97.35552 
L 258.77952 97.135044 
L 259.768529 96.02496 
L 260.11008 95.65325 
L 261.055979 94.6944 
L 261.44064 94.313295 
L 262.474735 93.36384 
L 262.7712 93.095885 
L 264.046078 92.03328 
L 264.10176 91.987299 
L 265.43232 90.969099 
L 265.813169 90.70272 
L 266.76288 90.038164 
L 267.810786 89.37216 
L 268.09344 89.191565 
L 269.424 88.413285 
L 270.127366 88.0416 
L 270.75456 87.70583 
L 272.08512 87.0621 
L 272.894883 86.71104 
L 273.41568 86.480786 
L 274.74624 85.953499 
L 276.0768 85.488438 
L 276.427259 85.38048 
L 277.40736 85.070047 
L 278.73792 84.703949 
L 280.06848 84.391179 
L 281.39904 84.129173 
L 281.893237 84.04992 
L 282.7296 83.910845 
L 284.06016 83.738381 
L 285.39072 83.613431 
L 286.72128 83.535061 
L 288.05184 83.502691 
L 289.3824 83.51608 
L 290.71296 83.575312 
L 292.04352 83.680776 
L 293.37408 83.833157 
L 294.70464 84.033421 
L 294.794207 84.04992 
L 296.0352 84.276061 
L 297.36576 84.567946 
L 298.69632 84.911476 
L 300.02688 85.308802 
L 300.241745 85.38048 
L 301.35744 85.753013 
L 302.688 86.254034 
L 303.774508 86.71104 
L 304.01856 86.814491 
L 305.34912 87.42979 
L 306.542747 88.0416 
L 306.67968 88.11284 
L 308.01024 88.857834 
L 308.852683 89.37216 
L 309.3408 89.676887 
L 310.67136 90.572624 
L 310.853108 90.70272 
L 312.00192 91.550034 
L 312.614443 92.03328 
L 313.33248 92.620148 
L 314.189253 93.36384 
L 314.66304 93.792326 
L 315.608588 94.6944 
L 315.9936 95.079412 
L 316.895674 96.02496 
L 317.32416 96.498747 
L 318.067852 97.35552 
L 318.65472 98.073557 
L 319.137966 98.68608 
L 319.98528 99.834892 
L 320.115376 100.01664 
L 321.011113 101.3472 
L 321.31584 101.835317 
L 321.830166 102.67776 
L 322.57516 104.00832 
L 322.6464 104.145253 
L 323.25821 105.33888 
L 323.873509 106.66944 
L 323.97696 106.913492 
L 324.433966 108 
L 324.934987 109.33056 
L 325.30752 110.446255 
L 325.379198 110.66112 
L 325.776524 111.99168 
L 326.120054 113.32224 
L 326.411939 114.6528 
L 326.63808 115.893793 
L 326.654579 115.98336 
L 326.854843 117.31392 
L 327.007224 118.64448 
L 327.112688 119.97504 
L 327.17192 121.3056 
L 327.185309 122.63616 
L 327.152939 123.96672 
L 327.074569 125.29728 
L 326.949619 126.62784 
L 326.777155 127.9584 
L 326.63808 128.794763 
L 326.558827 129.28896 
L 326.296821 130.61952 
L 325.984051 131.95008 
L 325.617953 133.28064 
L 325.30752 134.260741 
L 325.199562 134.6112 
L 324.734501 135.94176 
L 324.207214 137.27232 
L 323.97696 137.793117 
L 323.6259 138.60288 
L 322.98217 139.93344 
L 322.6464 140.560634 
L 322.274715 141.264 
L 321.496435 142.59456 
L 321.31584 142.877214 
L 320.649836 143.92512 
L 319.98528 144.874831 
L 319.718901 145.25568 
L 318.700701 146.58624 
L 318.65472 146.641922 
L 317.592115 147.9168 
L 317.32416 148.213265 
L 316.374705 149.24736 
L 315.9936 149.632021 
L 315.03475 150.57792 
L 314.66304 150.919471 
L 313.552956 151.90848 
L 313.33248 152.092409 
L 312.00192 153.162895 
L 311.903808 153.23904 
L 310.67136 154.140253 
L 310.051156 154.5696 
L 309.3408 155.035654 
L 308.01024 155.854392 
L 307.932214 155.90016 
L 306.67968 156.60176 
L 305.452981 157.23072 
L 305.34912 157.281888 
L 304.01856 157.900718 
L 302.688 158.45785 
L 302.420402 158.56128 
L 301.35744 158.960493 
L 300.02688 159.407724 
L 298.69632 159.80006 
L 298.346058 159.89184 
L 297.36576 160.1446 
L 296.0352 160.439822 
L 294.70464 160.685332 
L 293.37408 160.882422 
L 292.04352 161.032253 
L 290.71296 161.135812 
L 289.3824 161.193861 
L 288.05184 161.206902 
L 286.72128 161.175121 
L 285.39072 161.098359 
L 284.06016 160.976076 
L 282.7296 160.807329 
L 281.39904 160.590765 
L 280.06848 160.324621 
L 278.73792 160.006747 
z
" clip-path="url(#pa64de4f9ef)" style="fill: none; stroke-dasharray: 5.55,2.4; stroke-dashoffset: 0; stroke: #3c3c3c; stroke-width: 1.5"/>
    <path d="M 294.70464 171.904444 
L 293.801491 171.86688 
L 293.37408 171.849866 
L 292.04352 171.765681 
L 290.71296 171.650713 
L 289.3824 171.504554 
L 288.05184 171.326656 
L 286.72128 171.116322 
L 285.39072 170.872706 
L 284.06016 170.594815 
L 283.813228 170.53632 
L 282.7296 170.289061 
L 281.39904 169.949473 
L 280.06848 169.57285 
L 278.892582 169.20576 
L 278.73792 169.159037 
L 277.40736 168.716988 
L 276.0768 168.233572 
L 275.170663 167.8752 
L 274.74624 167.711718 
L 273.41568 167.155704 
L 272.08512 166.552416 
L 272.069126 166.54464 
L 270.75456 165.917184 
L 269.424 165.230229 
L 269.39463 165.21408 
L 268.09344 164.507196 
L 267.025921 163.88352 
L 266.76288 163.731062 
L 265.43232 162.910082 
L 264.888292 162.55296 
L 264.10176 162.036919 
L 262.935538 161.2224 
L 262.7712 161.107107 
L 261.44064 160.122711 
L 261.144026 159.89184 
L 260.11008 159.077125 
L 259.487047 158.56128 
L 258.77952 157.965016 
L 257.946395 157.23072 
L 257.44896 156.781975 
L 256.50956 155.90016 
L 256.1184 155.522225 
L 255.165775 154.5696 
L 254.78784 154.17844 
L 253.906025 153.23904 
L 253.45728 152.741605 
L 252.722984 151.90848 
L 252.12672 151.200953 
L 251.610875 150.57792 
L 250.79616 149.543974 
L 250.565289 149.24736 
L 249.580893 147.9168 
L 249.4656 147.752462 
L 248.651081 146.58624 
L 248.13504 145.799708 
L 247.777918 145.25568 
L 246.956938 143.92512 
L 246.80448 143.662079 
L 246.180804 142.59456 
L 245.47392 141.29337 
L 245.457771 141.264 
L 244.770816 139.93344 
L 244.14336 138.618874 
L 244.135584 138.60288 
L 243.532296 137.27232 
L 242.976282 135.94176 
L 242.8128 135.517337 
L 242.454428 134.6112 
L 241.971012 133.28064 
L 241.528963 131.95008 
L 241.48224 131.795418 
L 241.11515 130.61952 
L 240.738527 129.28896 
L 240.398939 127.9584 
L 240.15168 126.874772 
L 240.093185 126.62784 
L 239.815294 125.29728 
L 239.571678 123.96672 
L 239.361344 122.63616 
L 239.183446 121.3056 
L 239.037287 119.97504 
L 238.922319 118.64448 
L 238.838134 117.31392 
L 238.82112 116.886509 
L 238.783556 115.98336 
L 238.759726 114.6528 
L 238.76696 113.32224 
L 238.80524 111.99168 
L 238.82112 111.681766 
L 238.87356 110.66112 
L 238.972357 109.33056 
L 239.102285 108 
L 239.263717 106.66944 
L 239.457075 105.33888 
L 239.682819 104.00832 
L 239.94144 102.67776 
L 240.15168 101.712145 
L 240.232466 101.3472 
L 240.554919 100.01664 
L 240.912162 98.68608 
L 241.304799 97.35552 
L 241.48224 96.794749 
L 241.731691 96.02496 
L 242.194399 94.6944 
L 242.694948 93.36384 
L 242.8128 93.06559 
L 243.232708 92.03328 
L 243.809925 90.70272 
L 244.14336 89.973705 
L 244.427654 89.37216 
L 245.087236 88.0416 
L 245.47392 87.298018 
L 245.790426 86.71104 
L 246.538868 85.38048 
L 246.80448 84.925017 
L 247.335312 84.04992 
L 248.13504 82.787583 
L 248.180114 82.71936 
L 249.079486 81.3888 
L 249.4656 80.836111 
L 250.033846 80.05824 
L 250.79616 79.044766 
L 251.046148 78.72768 
L 252.120694 77.39712 
L 252.12672 77.389767 
L 253.265859 76.06656 
L 253.45728 75.848253 
L 254.483915 74.736 
L 254.78784 74.411444 
L 255.781542 73.40544 
L 256.1184 73.068086 
L 257.166583 72.07488 
L 257.44896 71.809324 
L 258.648157 70.74432 
L 258.77952 70.628185 
L 260.11008 69.516631 
L 260.24068 69.41376 
L 261.44064 68.468293 
L 261.961337 68.0832 
L 262.7712 67.482629 
L 263.821751 66.75264 
L 264.10176 66.557119 
L 265.43232 65.683038 
L 265.856321 65.42208 
L 266.76288 64.859304 
L 268.090785 64.09152 
L 268.09344 64.089969 
L 269.424 63.358595 
L 270.596657 62.76096 
L 270.75456 62.679404 
L 272.08512 62.036278 
L 273.41568 61.441961 
L 273.443482 61.4304 
L 274.74624 60.879163 
L 276.0768 60.360536 
L 276.802583 60.09984 
L 277.40736 59.878314 
L 278.73792 59.430262 
L 280.06848 59.021452 
L 280.971259 58.76928 
L 281.39904 58.647067 
L 282.7296 58.303083 
L 284.06016 57.994809 
L 285.39072 57.721065 
L 286.72128 57.480824 
L 286.991453 57.43872 
L 288.05184 57.269017 
L 289.3824 57.088898 
L 290.71296 56.940904 
L 292.04352 56.824519 
L 293.37408 56.739347 
L 294.70464 56.685101 
L 296.0352 56.661604 
L 297.36576 56.668781 
L 298.69632 56.706657 
L 300.02688 56.775353 
L 301.35744 56.875082 
L 302.688 57.006147 
L 304.01856 57.168936 
L 305.34912 57.363923 
L 305.789957 57.43872 
L 306.67968 57.588646 
L 308.01024 57.844825 
L 309.3408 58.134728 
L 310.67136 58.459188 
L 311.820239 58.76928 
L 312.00192 58.818234 
L 313.33248 59.207844 
L 314.66304 59.634788 
L 315.992454 60.09984 
L 315.9936 60.100242 
L 317.32416 60.597725 
L 318.65472 61.136319 
L 319.334885 61.4304 
L 319.98528 61.713475 
L 321.31584 62.330599 
L 322.186165 62.76096 
L 322.6464 62.990764 
L 323.97696 63.693296 
L 324.689019 64.09152 
L 325.30752 64.44192 
L 326.63808 65.238388 
L 326.931007 65.42208 
L 327.96864 66.08339 
L 328.963863 66.75264 
L 329.2992 66.982336 
L 330.62976 67.936387 
L 330.826338 68.0832 
L 331.96032 68.948806 
L 332.54316 69.41376 
L 333.29088 70.024888 
L 334.135858 70.74432 
L 334.62144 71.168966 
L 335.61892 72.07488 
L 335.952 72.386397 
L 337.004242 73.40544 
L 337.28256 73.683758 
L 338.301603 74.736 
L 338.61312 75.06908 
L 339.519034 76.06656 
L 339.94368 76.552142 
L 340.663112 77.39712 
L 341.27424 78.14484 
L 341.739194 78.72768 
L 342.6048 79.861662 
L 342.751613 80.05824 
L 343.705664 81.3888 
L 343.93536 81.724137 
L 344.60461 82.71936 
L 345.26592 83.756993 
L 345.449612 84.04992 
L 346.24608 85.38048 
L 346.59648 85.998981 
L 346.994704 86.71104 
L 347.697236 88.0416 
L 347.92704 88.501835 
L 348.357401 89.37216 
L 348.974525 90.70272 
L 349.2576 91.353115 
L 349.551681 92.03328 
L 350.090275 93.36384 
L 350.587758 94.6944 
L 350.58816 94.695546 
L 351.053212 96.02496 
L 351.480156 97.35552 
L 351.869766 98.68608 
L 351.91872 98.867761 
L 352.228812 100.01664 
L 352.553272 101.3472 
L 352.843175 102.67776 
L 353.099354 104.00832 
L 353.24928 104.898043 
L 353.324077 105.33888 
L 353.519064 106.66944 
L 353.681853 108 
L 353.812918 109.33056 
L 353.912647 110.66112 
L 353.981343 111.99168 
L 354.019219 113.32224 
L 354.026396 114.6528 
L 354.002899 115.98336 
L 353.948653 117.31392 
L 353.863481 118.64448 
L 353.747096 119.97504 
L 353.599102 121.3056 
L 353.418983 122.63616 
L 353.24928 123.696547 
L 353.207176 123.96672 
L 352.966935 125.29728 
L 352.693191 126.62784 
L 352.384917 127.9584 
L 352.040933 129.28896 
L 351.91872 129.716741 
L 351.666548 130.61952 
L 351.257738 131.95008 
L 350.809686 133.28064 
L 350.58816 133.885417 
L 350.327464 134.6112 
L 349.808837 135.94176 
L 349.2576 137.244518 
L 349.246039 137.27232 
L 348.651722 138.60288 
L 348.008596 139.93344 
L 347.92704 140.091343 
L 347.329405 141.264 
L 346.598031 142.59456 
L 346.59648 142.597215 
L 345.828696 143.92512 
L 345.26592 144.831679 
L 345.004962 145.25568 
L 344.130881 146.58624 
L 343.93536 146.866249 
L 343.205371 147.9168 
L 342.6048 148.726663 
L 342.219707 149.24736 
L 341.27424 150.44732 
L 341.171369 150.57792 
L 340.059815 151.90848 
L 339.94368 152.039843 
L 338.878676 153.23904 
L 338.61312 153.521417 
L 337.619914 154.5696 
L 337.28256 154.906458 
L 336.276556 155.90016 
L 335.952 156.204085 
L 334.839747 157.23072 
L 334.62144 157.422141 
L 333.298233 158.56128 
L 333.29088 158.567306 
L 331.96032 159.641852 
L 331.643234 159.89184 
L 330.62976 160.654154 
L 329.851889 161.2224 
L 329.2992 161.608514 
L 327.96864 162.507886 
L 327.900417 162.55296 
L 326.63808 163.352688 
L 325.762983 163.88352 
L 325.30752 164.149132 
L 323.97696 164.897574 
L 323.389982 165.21408 
L 322.6464 165.600764 
L 321.31584 166.260346 
L 320.714295 166.54464 
L 319.98528 166.878075 
L 318.65472 167.455292 
L 317.62241 167.8752 
L 317.32416 167.993052 
L 315.9936 168.493601 
L 314.66304 168.956309 
L 313.893251 169.20576 
L 313.33248 169.383201 
L 312.00192 169.775838 
L 310.67136 170.133081 
L 309.3408 170.455534 
L 308.975855 170.53632 
L 308.01024 170.74656 
L 306.67968 171.005181 
L 305.34912 171.230925 
L 304.01856 171.424283 
L 302.688 171.585715 
L 301.35744 171.715643 
L 300.02688 171.81444 
L 299.006234 171.86688 
L 298.69632 171.88276 
L 297.36576 171.92104 
L 296.0352 171.928274 
L 294.70464 171.904444 
z
" clip-path="url(#pa64de4f9ef)" style="fill: none; stroke-dasharray: 5.55,2.4; stroke-dashoffset: 0; stroke: #3c3c3c; stroke-width: 1.5"/>
    <path d="M 369.216 307.584 
L 103.104 41.472 
L 103.104 41.472 
" clip-path="url(#pa64de4f9ef)" style="fill: none; stroke: #3c3c3c; stroke-width: 1.5"/>
    <path d="M 166.97088 291.692077 
L 168.30144 291.887064 
L 169.632 292.049853 
L 170.96256 292.180918 
L 172.29312 292.280647 
L 173.62368 292.349343 
L 174.95424 292.387219 
L 176.2848 292.394396 
L 177.61536 292.370899 
L 178.94592 292.316653 
L 180.27648 292.231481 
L 181.60704 292.115096 
L 182.9376 291.967102 
L 184.26816 291.786983 
L 185.328547 291.61728 
L 185.59872 291.575176 
L 186.92928 291.334935 
L 188.25984 291.061191 
L 189.5904 290.752917 
L 190.92096 290.408933 
L 191.348741 290.28672 
L 192.25152 290.034548 
L 193.58208 289.625738 
L 194.91264 289.177686 
L 195.517417 288.95616 
L 196.2432 288.695464 
L 197.57376 288.176837 
L 198.876518 287.6256 
L 198.90432 287.614039 
L 200.23488 287.019722 
L 201.56544 286.376596 
L 201.723343 286.29504 
L 202.896 285.697405 
L 204.22656 284.966031 
L 204.229215 284.96448 
L 205.55712 284.196696 
L 206.463679 283.63392 
L 206.88768 283.372962 
L 208.21824 282.498881 
L 208.498249 282.30336 
L 209.5488 281.573371 
L 210.358663 280.9728 
L 210.87936 280.587707 
L 212.07932 279.64224 
L 212.20992 279.539369 
L 213.54048 278.427815 
L 213.671843 278.31168 
L 214.87104 277.246676 
L 215.153417 276.98112 
L 216.2016 275.987914 
L 216.538458 275.65056 
L 217.53216 274.644556 
L 217.836085 274.32 
L 218.86272 273.207747 
L 219.054141 272.98944 
L 220.19328 271.666233 
L 220.199306 271.65888 
L 221.273852 270.32832 
L 221.52384 270.011234 
L 222.286154 268.99776 
L 222.8544 268.219889 
L 223.240514 267.6672 
L 224.139886 266.33664 
L 224.18496 266.268417 
L 224.984688 265.00608 
L 225.51552 264.130983 
L 225.781132 263.67552 
L 226.529574 262.34496 
L 226.84608 261.757982 
L 227.232764 261.0144 
L 227.892346 259.68384 
L 228.17664 259.082295 
L 228.510075 258.35328 
L 229.087292 257.02272 
L 229.5072 255.99041 
L 229.625052 255.69216 
L 230.125601 254.3616 
L 230.588309 253.03104 
L 230.83776 252.261251 
L 231.015201 251.70048 
L 231.407838 250.36992 
L 231.765081 249.03936 
L 232.087534 247.7088 
L 232.16832 247.343855 
L 232.37856 246.37824 
L 232.637181 245.04768 
L 232.862925 243.71712 
L 233.056283 242.38656 
L 233.217715 241.056 
L 233.347643 239.72544 
L 233.44644 238.39488 
L 233.49888 237.374234 
L 233.51476 237.06432 
L 233.55304 235.73376 
L 233.560274 234.4032 
L 233.536444 233.07264 
L 233.49888 232.169491 
L 233.481866 231.74208 
L 233.397681 230.41152 
L 233.282713 229.08096 
L 233.136554 227.7504 
L 232.958656 226.41984 
L 232.748322 225.08928 
L 232.504706 223.75872 
L 232.226815 222.42816 
L 232.16832 222.181228 
L 231.921061 221.0976 
L 231.581473 219.76704 
L 231.20485 218.43648 
L 230.83776 217.260582 
L 230.791037 217.10592 
L 230.348988 215.77536 
L 229.865572 214.4448 
L 229.5072 213.538663 
L 229.343718 213.11424 
L 228.787704 211.78368 
L 228.184416 210.45312 
L 228.17664 210.437126 
L 227.549184 209.12256 
L 226.862229 207.792 
L 226.84608 207.76263 
L 226.139196 206.46144 
L 225.51552 205.393921 
L 225.363062 205.13088 
L 224.542082 203.80032 
L 224.18496 203.256292 
L 223.668919 202.46976 
L 222.8544 201.303538 
L 222.739107 201.1392 
L 221.754711 199.80864 
L 221.52384 199.512026 
L 220.709125 198.47808 
L 220.19328 197.855047 
L 219.597016 197.14752 
L 218.86272 196.314395 
L 218.413975 195.81696 
L 217.53216 194.87756 
L 217.154225 194.4864 
L 216.2016 193.533775 
L 215.81044 193.15584 
L 214.87104 192.274025 
L 214.373605 191.82528 
L 213.54048 191.090984 
L 212.832953 190.49472 
L 212.20992 189.978875 
L 211.175974 189.16416 
L 210.87936 188.933289 
L 209.5488 187.948893 
L 209.384462 187.8336 
L 208.21824 187.019081 
L 207.431708 186.50304 
L 206.88768 186.145918 
L 205.55712 185.324938 
L 205.294079 185.17248 
L 204.22656 184.548804 
L 202.92537 183.84192 
L 202.896 183.825771 
L 201.56544 183.138816 
L 200.250874 182.51136 
L 200.23488 182.503584 
L 198.90432 181.900296 
L 197.57376 181.344282 
L 197.149337 181.1808 
L 196.2432 180.822428 
L 194.91264 180.339012 
L 193.58208 179.896963 
L 193.427418 179.85024 
L 192.25152 179.48315 
L 190.92096 179.106527 
L 189.5904 178.766939 
L 188.506772 178.51968 
L 188.25984 178.461185 
L 186.92928 178.183294 
L 185.59872 177.939678 
L 184.26816 177.729344 
L 182.9376 177.551446 
L 181.60704 177.405287 
L 180.27648 177.290319 
L 178.94592 177.206134 
L 178.518509 177.18912 
L 177.61536 177.151556 
L 176.2848 177.127726 
L 174.95424 177.13496 
L 173.62368 177.17324 
L 173.313766 177.18912 
L 172.29312 177.24156 
L 170.96256 177.340357 
L 169.632 177.470285 
L 168.30144 177.631717 
L 166.97088 177.825075 
L 165.64032 178.050819 
L 164.30976 178.30944 
L 163.344145 178.51968 
L 162.9792 178.600466 
L 161.64864 178.922919 
L 160.31808 179.280162 
L 158.98752 179.672799 
L 158.426749 179.85024 
L 157.65696 180.099691 
L 156.3264 180.562399 
L 154.99584 181.062948 
L 154.69759 181.1808 
L 153.66528 181.600708 
L 152.33472 182.177925 
L 151.605705 182.51136 
L 151.00416 182.795654 
L 149.6736 183.455236 
L 148.930018 183.84192 
L 148.34304 184.158426 
L 147.01248 184.906868 
L 146.557017 185.17248 
L 145.68192 185.703312 
L 144.419583 186.50304 
L 144.35136 186.548114 
L 143.0208 187.447486 
L 142.468111 187.8336 
L 141.69024 188.401846 
L 140.676766 189.16416 
L 140.35968 189.414148 
L 139.02912 190.488694 
L 139.021767 190.49472 
L 137.69856 191.633859 
L 137.480253 191.82528 
L 136.368 192.851915 
L 136.043444 193.15584 
L 135.03744 194.149542 
L 134.700086 194.4864 
L 133.70688 195.534583 
L 133.441324 195.81696 
L 132.37632 197.016157 
L 132.260185 197.14752 
L 131.148631 198.47808 
L 131.04576 198.60868 
L 130.100293 199.80864 
L 129.7152 200.329337 
L 129.114629 201.1392 
L 128.38464 202.189751 
L 128.189119 202.46976 
L 127.315038 203.80032 
L 127.05408 204.224321 
L 126.491304 205.13088 
L 125.72352 206.458785 
L 125.721969 206.46144 
L 124.990595 207.792 
L 124.39296 208.964657 
L 124.311404 209.12256 
L 123.668278 210.45312 
L 123.073961 211.78368 
L 123.0624 211.811482 
L 122.511163 213.11424 
L 121.992536 214.4448 
L 121.73184 215.170583 
L 121.510314 215.77536 
L 121.062262 217.10592 
L 120.653452 218.43648 
L 120.40128 219.339259 
L 120.279067 219.76704 
L 119.935083 221.0976 
L 119.626809 222.42816 
L 119.353065 223.75872 
L 119.112824 225.08928 
L 119.07072 225.359453 
L 118.901017 226.41984 
L 118.720898 227.7504 
L 118.572904 229.08096 
L 118.456519 230.41152 
L 118.371347 231.74208 
L 118.317101 233.07264 
L 118.293604 234.4032 
L 118.300781 235.73376 
L 118.338657 237.06432 
L 118.407353 238.39488 
L 118.507082 239.72544 
L 118.638147 241.056 
L 118.800936 242.38656 
L 118.995923 243.71712 
L 119.07072 244.157957 
L 119.220646 245.04768 
L 119.476825 246.37824 
L 119.766728 247.7088 
L 120.091188 249.03936 
L 120.40128 250.188239 
L 120.450234 250.36992 
L 120.839844 251.70048 
L 121.266788 253.03104 
L 121.73184 254.360454 
L 121.732242 254.3616 
L 122.229725 255.69216 
L 122.768319 257.02272 
L 123.0624 257.702885 
L 123.345475 258.35328 
L 123.962599 259.68384 
L 124.39296 260.554165 
L 124.622764 261.0144 
L 125.325296 262.34496 
L 125.72352 263.057019 
L 126.07392 263.67552 
L 126.870388 265.00608 
L 127.05408 265.299007 
L 127.71539 266.33664 
L 128.38464 267.331863 
L 128.614336 267.6672 
L 129.568387 268.99776 
L 129.7152 269.194338 
L 130.580806 270.32832 
L 131.04576 270.91116 
L 131.656888 271.65888 
L 132.37632 272.503858 
L 132.800966 272.98944 
L 133.70688 273.98692 
L 134.018397 274.32 
L 135.03744 275.372242 
L 135.315758 275.65056 
L 136.368 276.669603 
L 136.70108 276.98112 
L 137.69856 277.887034 
L 138.184142 278.31168 
L 139.02912 279.031112 
L 139.77684 279.64224 
L 140.35968 280.107194 
L 141.493662 280.9728 
L 141.69024 281.119613 
L 143.0208 282.073664 
L 143.356137 282.30336 
L 144.35136 282.97261 
L 145.388993 283.63392 
L 145.68192 283.817612 
L 147.01248 284.61408 
L 147.630981 284.96448 
L 148.34304 285.362704 
L 149.6736 286.065236 
L 150.133835 286.29504 
L 151.00416 286.725401 
L 152.33472 287.342525 
L 152.985115 287.6256 
L 153.66528 287.919681 
L 154.99584 288.458275 
L 156.3264 288.955758 
L 156.327546 288.95616 
L 157.65696 289.421212 
L 158.98752 289.848156 
L 160.31808 290.237766 
L 160.499761 290.28672 
L 161.64864 290.596812 
L 162.9792 290.921272 
L 164.30976 291.211175 
L 165.64032 291.467354 
L 166.530043 291.61728 
L 166.97088 291.692077 
z
" clip-path="url(#pa64de4f9ef)" style="fill: none; stroke: #3c3c3c; stroke-width: 1.5"/>
    <path d="M 177.61536 265.022579 
L 178.94592 265.222843 
L 180.27648 265.375224 
L 181.60704 265.480688 
L 182.9376 265.53992 
L 184.26816 265.553309 
L 185.59872 265.520939 
L 186.92928 265.442569 
L 188.25984 265.317619 
L 189.5904 265.145155 
L 190.426763 265.00608 
L 190.92096 264.926827 
L 192.25152 264.664821 
L 193.58208 264.352051 
L 194.91264 263.985953 
L 195.892741 263.67552 
L 196.2432 263.567562 
L 197.57376 263.102501 
L 198.90432 262.575214 
L 199.425117 262.34496 
L 200.23488 261.9939 
L 201.56544 261.35017 
L 202.192634 261.0144 
L 202.896 260.642715 
L 204.22656 259.864435 
L 204.509214 259.68384 
L 205.55712 259.017836 
L 206.506831 258.35328 
L 206.88768 258.086901 
L 208.21824 257.068701 
L 208.273922 257.02272 
L 209.5488 255.960115 
L 209.845265 255.69216 
L 210.87936 254.742705 
L 211.264021 254.3616 
L 212.20992 253.40275 
L 212.551471 253.03104 
L 213.54048 251.920956 
L 213.724409 251.70048 
L 214.794895 250.36992 
L 214.87104 250.271808 
L 215.772253 249.03936 
L 216.2016 248.419156 
L 216.667654 247.7088 
L 217.486392 246.37824 
L 217.53216 246.300214 
L 218.23376 245.04768 
L 218.86272 243.820981 
L 218.913888 243.71712 
L 219.532718 242.38656 
L 220.08985 241.056 
L 220.19328 240.788402 
L 220.592493 239.72544 
L 221.039724 238.39488 
L 221.43206 237.06432 
L 221.52384 236.714058 
L 221.7766 235.73376 
L 222.071822 234.4032 
L 222.317332 233.07264 
L 222.514422 231.74208 
L 222.664253 230.41152 
L 222.767812 229.08096 
L 222.825861 227.7504 
L 222.838902 226.41984 
L 222.807121 225.08928 
L 222.730359 223.75872 
L 222.608076 222.42816 
L 222.439329 221.0976 
L 222.222765 219.76704 
L 221.956621 218.43648 
L 221.638747 217.10592 
L 221.52384 216.694184 
L 221.276427 215.77536 
L 220.86294 214.4448 
L 220.390392 213.11424 
L 220.19328 212.620136 
L 219.867138 211.78368 
L 219.284967 210.45312 
L 218.86272 209.58617 
L 218.63962 209.12256 
L 217.933007 207.792 
L 217.53216 207.105192 
L 217.156318 206.46144 
L 216.304219 205.13088 
L 216.2016 204.981789 
L 215.377377 203.80032 
L 214.87104 203.129853 
L 214.361205 202.46976 
L 213.54048 201.479811 
L 213.248898 201.1392 
L 212.20992 199.998032 
L 212.030103 199.80864 
L 210.87936 198.657897 
L 210.689968 198.47808 
L 209.5488 197.439102 
L 209.208189 197.14752 
L 208.21824 196.326795 
L 207.558147 195.81696 
L 206.88768 195.310623 
L 205.706211 194.4864 
L 205.55712 194.383781 
L 204.22656 193.531682 
L 203.582808 193.15584 
L 202.896 192.754993 
L 201.56544 192.04838 
L 201.10183 191.82528 
L 200.23488 191.403033 
L 198.90432 190.820862 
L 198.067864 190.49472 
L 197.57376 190.297608 
L 196.2432 189.82506 
L 194.91264 189.411573 
L 193.993816 189.16416 
L 193.58208 189.049253 
L 192.25152 188.731379 
L 190.92096 188.465235 
L 189.5904 188.248671 
L 188.25984 188.079924 
L 186.92928 187.957641 
L 185.59872 187.880879 
L 184.26816 187.849098 
L 182.9376 187.862139 
L 181.60704 187.920188 
L 180.27648 188.023747 
L 178.94592 188.173578 
L 177.61536 188.370668 
L 176.2848 188.616178 
L 174.95424 188.9114 
L 173.973942 189.16416 
L 173.62368 189.25594 
L 172.29312 189.648276 
L 170.96256 190.095507 
L 169.899598 190.49472 
L 169.632 190.59815 
L 168.30144 191.155282 
L 166.97088 191.774112 
L 166.867019 191.82528 
L 165.64032 192.45424 
L 164.387786 193.15584 
L 164.30976 193.201608 
L 162.9792 194.020346 
L 162.268844 194.4864 
L 161.64864 194.915747 
L 160.416192 195.81696 
L 160.31808 195.893105 
L 158.98752 196.963591 
L 158.767044 197.14752 
L 157.65696 198.136529 
L 157.28525 198.47808 
L 156.3264 199.423979 
L 155.945295 199.80864 
L 154.99584 200.842735 
L 154.727885 201.1392 
L 153.66528 202.414078 
L 153.619299 202.46976 
L 152.601099 203.80032 
L 152.33472 204.181169 
L 151.670164 205.13088 
L 151.00416 206.178786 
L 150.823565 206.46144 
L 150.045285 207.792 
L 149.6736 208.495366 
L 149.33783 209.12256 
L 148.6941 210.45312 
L 148.34304 211.262883 
L 148.112786 211.78368 
L 147.585499 213.11424 
L 147.120438 214.4448 
L 147.01248 214.795259 
L 146.702047 215.77536 
L 146.335949 217.10592 
L 146.023179 218.43648 
L 145.761173 219.76704 
L 145.68192 220.261237 
L 145.542845 221.0976 
L 145.370381 222.42816 
L 145.245431 223.75872 
L 145.167061 225.08928 
L 145.134691 226.41984 
L 145.14808 227.7504 
L 145.207312 229.08096 
L 145.312776 230.41152 
L 145.465157 231.74208 
L 145.665421 233.07264 
L 145.68192 233.162207 
L 145.908061 234.4032 
L 146.199946 235.73376 
L 146.543476 237.06432 
L 146.940802 238.39488 
L 147.01248 238.609745 
L 147.385013 239.72544 
L 147.886034 241.056 
L 148.34304 242.142508 
L 148.446491 242.38656 
L 149.06179 243.71712 
L 149.6736 244.910747 
L 149.74484 245.04768 
L 150.489834 246.37824 
L 151.00416 247.220683 
L 151.308887 247.7088 
L 152.204624 249.03936 
L 152.33472 249.221108 
L 153.182034 250.36992 
L 153.66528 250.982443 
L 154.252148 251.70048 
L 154.99584 252.557253 
L 155.424326 253.03104 
L 156.3264 253.976588 
L 156.711412 254.3616 
L 157.65696 255.263674 
L 158.130747 255.69216 
L 158.98752 256.435852 
L 159.705557 257.02272 
L 160.31808 257.505966 
L 161.466892 258.35328 
L 161.64864 258.483376 
L 162.9792 259.379113 
L 163.467317 259.68384 
L 164.30976 260.198166 
L 165.64032 260.94316 
L 165.777253 261.0144 
L 166.97088 261.62621 
L 168.30144 262.241509 
L 168.545492 262.34496 
L 169.632 262.801966 
L 170.96256 263.302987 
L 172.078255 263.67552 
L 172.29312 263.747198 
L 173.62368 264.144524 
L 174.95424 264.488054 
L 176.2848 264.779939 
L 177.525793 265.00608 
L 177.61536 265.022579 
z
" clip-path="url(#pa64de4f9ef)" style="fill: none; stroke: #3c3c3c; stroke-width: 1.5"/>
    <path d="M 188.25984 229.264324 
L 189.5904 229.582119 
L 190.92096 229.711341 
L 192.25152 229.663761 
L 193.58208 229.4344 
L 194.678107 229.08096 
L 194.91264 229.009641 
L 196.2432 228.393236 
L 197.206538 227.7504 
L 197.57376 227.489813 
L 198.721243 226.41984 
L 198.90432 226.219021 
L 199.771695 225.08928 
L 200.23488 224.284936 
L 200.514558 223.75872 
L 201.028794 222.42816 
L 201.331812 221.0976 
L 201.45344 219.76704 
L 201.40856 218.43648 
L 201.192224 217.10592 
L 200.779272 215.77536 
L 200.23488 214.644709 
L 200.137355 214.4448 
L 199.245267 213.11424 
L 198.90432 212.715577 
L 197.972423 211.78368 
L 197.57376 211.442733 
L 196.2432 210.550645 
L 196.043291 210.45312 
L 194.91264 209.908728 
L 193.58208 209.495776 
L 192.25152 209.27944 
L 190.92096 209.23456 
L 189.5904 209.356188 
L 188.25984 209.659206 
L 186.92928 210.173442 
L 186.403064 210.45312 
L 185.59872 210.916305 
L 184.468979 211.78368 
L 184.26816 211.966757 
L 183.198187 213.11424 
L 182.9376 213.481462 
L 182.294764 214.4448 
L 181.678359 215.77536 
L 181.60704 216.009893 
L 181.2536 217.10592 
L 181.024239 218.43648 
L 180.976659 219.76704 
L 181.105881 221.0976 
L 181.423676 222.42816 
L 181.60704 222.912772 
L 181.927206 223.75872 
L 182.671781 225.08928 
L 182.9376 225.457393 
L 183.718814 226.41984 
L 184.26816 226.969186 
L 185.230607 227.7504 
L 185.59872 228.016219 
L 186.92928 228.760794 
L 187.775228 229.08096 
L 188.25984 229.264324 
z
" clip-path="url(#pa64de4f9ef)" style="fill: none; stroke: #3c3c3c; stroke-width: 1.5"/>
   </g>
   <g id="text_1">
    <!-- Carga negativa -->
    <g transform="translate(280.512 41.472) scale(0.1 -0.1)">
     <defs>
      <path id="DejaVuSans-43" d="M 4122 4306 
L 4122 3641 
Q 3803 3938 3442 4084 
Q 3081 4231 2675 4231 
Q 1875 4231 1450 3742 
Q 1025 3253 1025 2328 
Q 1025 1406 1450 917 
Q 1875 428 2675 428 
Q 3081 428 3442 575 
Q 3803 722 4122 1019 
L 4122 359 
Q 3791 134 3420 21 
Q 3050 -91 2638 -91 
Q 1578 -91 968 557 
Q 359 1206 359 2328 
Q 359 3453 968 4101 
Q 1578 4750 2638 4750 
Q 3056 4750 3426 4639 
Q 3797 4528 4122 4306 
z
" transform="scale(0.015625)"/>
      <path id="DejaVuSans-61" d="M 2194 1759 
Q 1497 1759 1228 1600 
Q 959 1441 959 1056 
Q 959 750 1161 570 
Q 1363 391 1709 391 
Q 2188 391 2477 730 
Q 2766 1069 2766 1631 
L 2766 1759 
L 2194 1759 
z
M 3341 1997 
L 3341 0 
L 2766 0 
L 2766 531 
Q 2569 213 2275 61 
Q 1981 -91 1556 -91 
Q 1019 -91 701 211 
Q 384 513 384 1019 
Q 384 1609 779 1909 
Q 1175 2209 1959 2209 
L 2766 2209 
L 2766 2266 
Q 2766 2663 2505 2880 
Q 2244 3097 1772 3097 
Q 1472 3097 1187 3025 
Q 903 2953 641 2809 
L 641 3341 
Q 956 3463 1253 3523 
Q 1550 3584 1831 3584 
Q 2591 3584 2966 3190 
Q 3341 2797 3341 1997 
z
" transform="scale(0.015625)"/>
      <path id="DejaVuSans-72" d="M 2631 2963 
Q 2534 3019 2420 3045 
Q 2306 3072 2169 3072 
Q 1681 3072 1420 2755 
Q 1159 2438 1159 1844 
L 1159 0 
L 581 0 
L 581 3500 
L 1159 3500 
L 1159 2956 
Q 1341 3275 1631 3429 
Q 1922 3584 2338 3584 
Q 2397 3584 2469 3576 
Q 2541 3569 2628 3553 
L 2631 2963 
z
" transform="scale(0.015625)"/>
      <path id="DejaVuSans-67" d="M 2906 1791 
Q 2906 2416 2648 2759 
Q 2391 3103 1925 3103 
Q 1463 3103 1205 2759 
Q 947 2416 947 1791 
Q 947 1169 1205 825 
Q 1463 481 1925 481 
Q 2391 481 2648 825 
Q 2906 1169 2906 1791 
z
M 3481 434 
Q 3481 -459 3084 -895 
Q 2688 -1331 1869 -1331 
Q 1566 -1331 1297 -1286 
Q 1028 -1241 775 -1147 
L 775 -588 
Q 1028 -725 1275 -790 
Q 1522 -856 1778 -856 
Q 2344 -856 2625 -561 
Q 2906 -266 2906 331 
L 2906 616 
Q 2728 306 2450 153 
Q 2172 0 1784 0 
Q 1141 0 747 490 
Q 353 981 353 1791 
Q 353 2603 747 3093 
Q 1141 3584 1784 3584 
Q 2172 3584 2450 3431 
Q 2728 3278 2906 2969 
L 2906 3500 
L 3481 3500 
L 3481 434 
z
" transform="scale(0.015625)"/>
      <path id="DejaVuSans-20" transform="scale(0.015625)"/>
      <path id="DejaVuSans-6e" d="M 3513 2113 
L 3513 0 
L 2938 0 
L 2938 2094 
Q 2938 2591 2744 2837 
Q 2550 3084 2163 3084 
Q 1697 3084 1428 2787 
Q 1159 2491 1159 1978 
L 1159 0 
L 581 0 
L 581 3500 
L 1159 3500 
L 1159 2956 
Q 1366 3272 1645 3428 
Q 1925 3584 2291 3584 
Q 2894 3584 3203 3211 
Q 3513 2838 3513 2113 
z
" transform="scale(0.015625)"/>
      <path id="DejaVuSans-65" d="M 3597 1894 
L 3597 1613 
L 953 1613 
Q 991 1019 1311 708 
Q 1631 397 2203 397 
Q 2534 397 2845 478 
Q 3156 559 3463 722 
L 3463 178 
Q 3153 47 2828 -22 
Q 2503 -91 2169 -91 
Q 1331 -91 842 396 
Q 353 884 353 1716 
Q 353 2575 817 3079 
Q 1281 3584 2069 3584 
Q 2775 3584 3186 3129 
Q 3597 2675 3597 1894 
z
M 3022 2063 
Q 3016 2534 2758 2815 
Q 2500 3097 2075 3097 
Q 1594 3097 1305 2825 
Q 1016 2553 972 2059 
L 3022 2063 
z
" transform="scale(0.015625)"/>
      <path id="DejaVuSans-74" d="M 1172 4494 
L 1172 3500 
L 2356 3500 
L 2356 3053 
L 1172 3053 
L 1172 1153 
Q 1172 725 1289 603 
Q 1406 481 1766 481 
L 2356 481 
L 2356 0 
L 1766 0 
Q 1100 0 847 248 
Q 594 497 594 1153 
L 594 3053 
L 172 3053 
L 172 3500 
L 594 3500 
L 594 4494 
L 1172 4494 
z
" transform="scale(0.015625)"/>
      <path id="DejaVuSans-69" d="M 603 3500 
L 1178 3500 
L 1178 0 
L 603 0 
L 603 3500 
z
M 603 4863 
L 1178 4863 
L 1178 4134 
L 603 4134 
L 603 4863 
z
" transform="scale(0.015625)"/>
      <path id="DejaVuSans-76" d="M 191 3500 
L 800 3500 
L 1894 563 
L 2988 3500 
L 3597 3500 
L 2284 0 
L 1503 0 
L 191 3500 
z
" transform="scale(0.015625)"/>
     </defs>
     <use xlink:href="#DejaVuSans-43"/>
     <use xlink:href="#DejaVuSans-61" x="69.824219"/>
     <use xlink:href="#DejaVuSans-72" x="131.103516"/>
     <use xlink:href="#DejaVuSans-67" x="170.466797"/>
     <use xlink:href="#DejaVuSans-61" x="233.943359"/>
     <use xlink:href="#DejaVuSans-20" x="295.222656"/>
     <use xlink:href="#DejaVuSans-6e" x="327.009766"/>
     <use xlink:href="#DejaVuSans-65" x="390.388672"/>
     <use xlink:href="#DejaVuSans-67" x="451.912109"/>
     <use xlink:href="#DejaVuSans-61" x="515.388672"/>
     <use xlink:href="#DejaVuSans-74" x="576.667969"/>
     <use xlink:href="#DejaVuSans-69" x="615.876953"/>
     <use xlink:href="#DejaVuSans-76" x="643.660156"/>
     <use xlink:href="#DejaVuSans-61" x="702.839844"/>
    </g>
   </g>
   <g id="text_2">
    <!-- Carga positiva -->
    <g transform="translate(191.808 307.584) scale(0.1 -0.1)">
     <defs>
      <path id="DejaVuSans-70" d="M 1159 525 
L 1159 -1331 
L 581 -1331 
L 581 3500 
L 1159 3500 
L 1159 2969 
Q 1341 3281 1617 3432 
Q 1894 3584 2278 3584 
Q 2916 3584 3314 3078 
Q 3713 2572 3713 1747 
Q 3713 922 3314 415 
Q 2916 -91 2278 -91 
Q 1894 -91 1617 61 
Q 1341 213 1159 525 
z
M 3116 1747 
Q 3116 2381 2855 2742 
Q 2594 3103 2138 3103 
Q 1681 3103 1420 2742 
Q 1159 2381 1159 1747 
Q 1159 1113 1420 752 
Q 1681 391 2138 391 
Q 2594 391 2855 752 
Q 3116 1113 3116 1747 
z
" transform="scale(0.015625)"/>
      <path id="DejaVuSans-6f" d="M 1959 3097 
Q 1497 3097 1228 2736 
Q 959 2375 959 1747 
Q 959 1119 1226 758 
Q 1494 397 1959 397 
Q 2419 397 2687 759 
Q 2956 1122 2956 1747 
Q 2956 2369 2687 2733 
Q 2419 3097 1959 3097 
z
M 1959 3584 
Q 2709 3584 3137 3096 
Q 3566 2609 3566 1747 
Q 3566 888 3137 398 
Q 2709 -91 1959 -91 
Q 1206 -91 779 398 
Q 353 888 353 1747 
Q 353 2609 779 3096 
Q 1206 3584 1959 3584 
z
" transform="scale(0.015625)"/>
      <path id="DejaVuSans-73" d="M 2834 3397 
L 2834 2853 
Q 2591 2978 2328 3040 
Q 2066 3103 1784 3103 
Q 1356 3103 1142 2972 
Q 928 2841 928 2578 
Q 928 2378 1081 2264 
Q 1234 2150 1697 2047 
L 1894 2003 
Q 2506 1872 2764 1633 
Q 3022 1394 3022 966 
Q 3022 478 2636 193 
Q 2250 -91 1575 -91 
Q 1294 -91 989 -36 
Q 684 19 347 128 
L 347 722 
Q 666 556 975 473 
Q 1284 391 1588 391 
Q 1994 391 2212 530 
Q 2431 669 2431 922 
Q 2431 1156 2273 1281 
Q 2116 1406 1581 1522 
L 1381 1569 
Q 847 1681 609 1914 
Q 372 2147 372 2553 
Q 372 3047 722 3315 
Q 1072 3584 1716 3584 
Q 2034 3584 2315 3537 
Q 2597 3491 2834 3397 
z
" transform="scale(0.015625)"/>
     </defs>
     <use xlink:href="#DejaVuSans-43"/>
     <use xlink:href="#DejaVuSans-61" x="69.824219"/>
     <use xlink:href="#DejaVuSans-72" x="131.103516"/>
     <use xlink:href="#DejaVuSans-67" x="170.466797"/>
     <use xlink:href="#DejaVuSans-61" x="233.943359"/>
     <use xlink:href="#DejaVuSans-20" x="295.222656"/>
     <use xlink:href="#DejaVuSans-70" x="327.009766"/>
     <use xlink:href="#DejaVuSans-6f" x="390.486328"/>
     <use xlink:href="#DejaVuSans-73" x="451.667969"/>
     <use xlink:href="#DejaVuSans-69" x="503.767578"/>
     <use xlink:href="#DejaVuSans-74" x="531.550781"/>
     <use xlink:href="#DejaVuSans-69" x="570.759766"/>
     <use xlink:href="#DejaVuSans-76" x="598.542969"/>
     <use xlink:href="#DejaVuSans-61" x="657.722656"/>
    </g>
   </g>
   <g id="text_3">
    <!-- Círculos de potencial constante -->
    <g transform="translate(58.752 174.528) scale(0.1 -0.1)">
     <defs>
      <path id="DejaVuSans-ed" d="M 1325 5119 
L 1947 5119 
L 928 3944 
L 450 3944 
L 1325 5119 
z
M 603 3500 
L 1178 3500 
L 1178 0 
L 603 0 
L 603 3500 
z
M 891 3584 
L 891 3584 
z
" transform="scale(0.015625)"/>
      <path id="DejaVuSans-63" d="M 3122 3366 
L 3122 2828 
Q 2878 2963 2633 3030 
Q 2388 3097 2138 3097 
Q 1578 3097 1268 2742 
Q 959 2388 959 1747 
Q 959 1106 1268 751 
Q 1578 397 2138 397 
Q 2388 397 2633 464 
Q 2878 531 3122 666 
L 3122 134 
Q 2881 22 2623 -34 
Q 2366 -91 2075 -91 
Q 1284 -91 818 406 
Q 353 903 353 1747 
Q 353 2603 823 3093 
Q 1294 3584 2113 3584 
Q 2378 3584 2631 3529 
Q 2884 3475 3122 3366 
z
" transform="scale(0.015625)"/>
      <path id="DejaVuSans-75" d="M 544 1381 
L 544 3500 
L 1119 3500 
L 1119 1403 
Q 1119 906 1312 657 
Q 1506 409 1894 409 
Q 2359 409 2629 706 
Q 2900 1003 2900 1516 
L 2900 3500 
L 3475 3500 
L 3475 0 
L 2900 0 
L 2900 538 
Q 2691 219 2414 64 
Q 2138 -91 1772 -91 
Q 1169 -91 856 284 
Q 544 659 544 1381 
z
M 1991 3584 
L 1991 3584 
z
" transform="scale(0.015625)"/>
      <path id="DejaVuSans-6c" d="M 603 4863 
L 1178 4863 
L 1178 0 
L 603 0 
L 603 4863 
z
" transform="scale(0.015625)"/>
      <path id="DejaVuSans-64" d="M 2906 2969 
L 2906 4863 
L 3481 4863 
L 3481 0 
L 2906 0 
L 2906 525 
Q 2725 213 2448 61 
Q 2172 -91 1784 -91 
Q 1150 -91 751 415 
Q 353 922 353 1747 
Q 353 2572 751 3078 
Q 1150 3584 1784 3584 
Q 2172 3584 2448 3432 
Q 2725 3281 2906 2969 
z
M 947 1747 
Q 947 1113 1208 752 
Q 1469 391 1925 391 
Q 2381 391 2643 752 
Q 2906 1113 2906 1747 
Q 2906 2381 2643 2742 
Q 2381 3103 1925 3103 
Q 1469 3103 1208 2742 
Q 947 2381 947 1747 
z
" transform="scale(0.015625)"/>
     </defs>
     <use xlink:href="#DejaVuSans-43"/>
     <use xlink:href="#DejaVuSans-ed" x="69.824219"/>
     <use xlink:href="#DejaVuSans-72" x="97.607422"/>
     <use xlink:href="#DejaVuSans-63" x="136.470703"/>
     <use xlink:href="#DejaVuSans-75" x="191.451172"/>
     <use xlink:href="#DejaVuSans-6c" x="254.830078"/>
     <use xlink:href="#DejaVuSans-6f" x="282.613281"/>
     <use xlink:href="#DejaVuSans-73" x="343.794922"/>
     <use xlink:href="#DejaVuSans-20" x="395.894531"/>
     <use xlink:href="#DejaVuSans-64" x="427.681641"/>
     <use xlink:href="#DejaVuSans-65" x="491.158203"/>
     <use xlink:href="#DejaVuSans-20" x="552.681641"/>
     <use xlink:href="#DejaVuSans-70" x="584.46875"/>
     <use xlink:href="#DejaVuSans-6f" x="647.945312"/>
     <use xlink:href="#DejaVuSans-74" x="709.126953"/>
     <use xlink:href="#DejaVuSans-65" x="748.335938"/>
     <use xlink:href="#DejaVuSans-6e" x="809.859375"/>
     <use xlink:href="#DejaVuSans-63" x="873.238281"/>
     <use xlink:href="#DejaVuSans-69" x="928.21875"/>
     <use xlink:href="#DejaVuSans-61" x="956.001953"/>
     <use xlink:href="#DejaVuSans-6c" x="1017.28125"/>
     <use xlink:href="#DejaVuSans-20" x="1045.064453"/>
     <use xlink:href="#DejaVuSans-63" x="1076.851562"/>
     <use xlink:href="#DejaVuSans-6f" x="1131.832031"/>
     <use xlink:href="#DejaVuSans-6e" x="1193.013672"/>
     <use xlink:href="#DejaVuSans-73" x="1256.392578"/>
     <use xlink:href="#DejaVuSans-74" x="1308.492188"/>
     <use xlink:href="#DejaVuSans-61" x="1347.701172"/>
     <use xlink:href="#DejaVuSans-6e" x="1408.980469"/>
     <use xlink:href="#DejaVuSans-74" x="1472.359375"/>
     <use xlink:href="#DejaVuSans-65" x="1511.568359"/>
    </g>
   </g>
  </g>
 </g>
 <defs>
  <clipPath id="pa64de4f9ef">
   <rect x="103.104" y="41.472" width="266.112" height="266.112"/>
  </clipPath>
 </defs>
</svg>
