<?xml version="1.0" encoding="UTF-8" standalone="no"?>
<!-- Created with Inkscape (http://www.inkscape.org/) -->

<svg
   width="172.41609mm"
   height="58.144192mm"
   viewBox="0 0 172.41609 58.144192"
   version="1.1"
   id="svg5"
   xml:space="preserve"
   inkscape:version="1.2.2 (732a01da63, 2022-12-09)"
   sodipodi:docname="hankel1_singularidad_editado.svg"
   xmlns:inkscape="http://www.inkscape.org/namespaces/inkscape"
   xmlns:sodipodi="http://sodipodi.sourceforge.net/DTD/sodipodi-0.dtd"
   xmlns:xlink="http://www.w3.org/1999/xlink"
   xmlns="http://www.w3.org/2000/svg"
   xmlns:svg="http://www.w3.org/2000/svg"><sodipodi:namedview
     id="namedview7"
     pagecolor="#ffffff"
     bordercolor="#000000"
     borderopacity="0.25"
     inkscape:showpageshadow="2"
     inkscape:pageopacity="0.0"
     inkscape:pagecheckerboard="0"
     inkscape:deskcolor="#d1d1d1"
     inkscape:document-units="mm"
     showgrid="false"
     inkscape:zoom="1.4841611"
     inkscape:cx="298.48513"
     inkscape:cy="243.57195"
     inkscape:window-width="2400"
     inkscape:window-height="1261"
     inkscape:window-x="-9"
     inkscape:window-y="-8"
     inkscape:window-maximized="1"
     inkscape:current-layer="layer1" /><defs
     id="defs2"><style
       type="text/css"
       id="style1193">*{stroke-linejoin: round; stroke-linecap: butt}</style><path
       id="m3a52a458e5"
       d="M 0,0 V 3.5"
       style="stroke:#000000;stroke-width:0.8" /><path
       id="DejaVuSans-30"
       d="m 2034,4250 q -487,0 -733,-480 -245,-479 -245,-1442 0,-959 245,-1439 246,-480 733,-480 491,0 736,480 246,480 246,1439 0,963 -246,1442 -245,480 -736,480 z m 0,500 q 785,0 1199,-621 414,-620 414,-1801 0,-1178 -414,-1799 -414,-620 -1199,-620 -784,0 -1198,620 -414,621 -414,1799 0,1181 414,1801 414,621 1198,621 z"
       transform="scale(0.015625)" /><path
       id="DejaVuSans-2e"
       d="m 684,794 h 660 V 0 H 684 Z"
       transform="scale(0.015625)" /><path
       id="DejaVuSans-32"
       d="M 1228,531 H 3431 V 0 H 469 v 531 q 359,372 979,998 621,627 780,809 303,340 423,576 121,236 121,464 0,372 -261,606 -261,235 -680,235 -297,0 -627,-103 -329,-103 -704,-313 v 638 q 381,153 712,231 332,78 607,78 725,0 1156,-363 431,-362 431,-968 0,-288 -108,-546 -107,-257 -392,-607 -78,-91 -497,-524 Q 1991,1309 1228,531 Z"
       transform="scale(0.015625)" /><path
       id="DejaVuSans-34"
       d="M 2419,4116 825,1625 h 1594 z m -166,550 h 794 V 1625 h 666 V 1100 H 3047 V 0 H 2419 V 1100 H 313 v 609 z"
       transform="scale(0.015625)" /><path
       id="DejaVuSans-36"
       d="m 2113,2584 q -425,0 -674,-291 -248,-290 -248,-796 0,-503 248,-796 249,-292 674,-292 425,0 673,292 248,293 248,796 0,506 -248,796 -248,291 -673,291 z m 1253,1979 v -575 q -238,112 -480,171 -242,60 -480,60 -625,0 -955,-422 -329,-422 -376,-1275 184,272 462,417 279,145 613,145 703,0 1111,-427 408,-426 408,-1160 0,-719 -425,-1154 -425,-434 -1131,-434 -810,0 -1238,620 -428,621 -428,1799 0,1106 525,1764 525,658 1409,658 238,0 480,-47 242,-47 505,-140 z"
       transform="scale(0.015625)" /><path
       id="DejaVuSans-38"
       d="m 2034,2216 q -450,0 -708,-241 -257,-241 -257,-662 0,-422 257,-663 258,-241 708,-241 450,0 709,242 260,243 260,662 0,421 -258,662 -257,241 -711,241 z m -631,268 q -406,100 -633,378 -226,279 -226,679 0,559 398,884 399,325 1092,325 697,0 1094,-325 397,-325 397,-884 0,-400 -227,-679 -226,-278 -629,-378 456,-106 710,-416 255,-309 255,-755 Q 3634,634 3220,271 2806,-91 2034,-91 1263,-91 848,271 434,634 434,1313 q 0,446 256,755 257,310 713,416 z m -231,997 q 0,-362 226,-565 227,-203 636,-203 407,0 636,203 230,203 230,565 0,363 -230,566 -229,203 -636,203 -409,0 -636,-203 -226,-203 -226,-566 z"
       transform="scale(0.015625)" /><path
       id="DejaVuSans-31"
       d="M 794,531 H 1825 V 4091 L 703,3866 v 575 l 1116,225 h 631 V 531 H 3481 V 0 H 794 Z"
       transform="scale(0.015625)" /><path
       id="DejaVuSans-Oblique-72"
       d="m 2853,2969 q -87,47 -200,72 -112,25 -240,25 -460,0 -804,-349 -343,-348 -456,-933 L 800,0 H 225 l 684,3500 h 575 l -109,-544 q 228,303 545,465 318,163 677,163 94,0 184,-11 91,-10 182,-35 z"
       transform="scale(0.015625)" /><path
       id="m2958f99c69"
       d="M 0,0 H -3.5"
       style="stroke:#000000;stroke-width:0.8" /><path
       id="DejaVuSans-2212"
       d="M 678,2272 H 4684 V 1741 H 678 Z"
       transform="scale(0.015625)" /><path
       id="DejaVuSans-35"
       d="M 691,4666 H 3169 V 4134 H 1269 V 2991 q 137,47 274,70 138,23 276,23 781,0 1237,-428 457,-428 457,-1159 Q 3513,744 3044,326 2575,-91 1722,-91 1428,-91 1123,-41 819,9 494,109 v 635 q 281,-153 581,-228 300,-75 634,-75 541,0 856,284 316,284 316,772 0,487 -316,771 -315,285 -856,285 -253,0 -505,-56 -251,-56 -513,-175 z"
       transform="scale(0.015625)" /><path
       id="DejaVuSans-37"
       d="M 525,4666 H 3525 V 4397 L 1831,0 H 1172 L 2766,4134 H 525 Z"
       transform="scale(0.015625)" /><path
       id="DejaVuSans-41"
       d="M 2188,4044 1331,1722 h 1716 z m -357,622 h 716 L 4325,0 H 3669 L 3244,1197 H 1141 L 716,0 H 50 Z"
       transform="scale(0.015625)" /><path
       id="DejaVuSans-6d"
       d="m 3328,2828 q 216,388 516,572 300,184 706,184 547,0 844,-383 297,-382 297,-1088 V 0 h -578 v 2094 q 0,503 -179,746 -178,244 -543,244 -447,0 -707,-297 -259,-296 -259,-809 V 0 h -578 v 2094 q 0,506 -178,748 -178,242 -550,242 -441,0 -701,-298 -259,-298 -259,-808 V 0 H 581 v 3500 h 578 v -544 q 197,322 472,475 275,153 653,153 382,0 649,-194 267,-193 395,-562 z"
       transform="scale(0.015625)" /><path
       id="DejaVuSans-70"
       d="M 1159,525 V -1331 H 581 v 4831 h 578 v -531 q 182,312 458,463 277,152 661,152 638,0 1036,-506 399,-506 399,-1331 0,-825 -399,-1332 -398,-506 -1036,-506 -384,0 -661,152 -276,152 -458,464 z m 1957,1222 q 0,634 -261,995 -261,361 -717,361 -457,0 -718,-361 -261,-361 -261,-995 0,-634 261,-995 261,-361 718,-361 456,0 717,361 261,361 261,995 z"
       transform="scale(0.015625)" /><path
       id="DejaVuSans-6c"
       d="m 603,4863 h 575 V 0 H 603 Z"
       transform="scale(0.015625)" /><path
       id="DejaVuSans-69"
       d="m 603,3500 h 575 V 0 H 603 Z m 0,1363 h 575 V 4134 H 603 Z"
       transform="scale(0.015625)" /><path
       id="DejaVuSans-74"
       d="M 1172,4494 V 3500 H 2356 V 3053 H 1172 V 1153 q 0,-428 117,-550 117,-122 477,-122 h 590 V 0 H 1766 Q 1100,0 847,248 594,497 594,1153 V 3053 H 172 v 447 h 422 v 994 z"
       transform="scale(0.015625)" /><path
       id="DejaVuSans-75"
       d="m 544,1381 v 2119 h 575 V 1403 q 0,-497 193,-746 194,-248 582,-248 465,0 735,297 271,297 271,810 v 1984 h 575 V 0 H 2900 V 538 Q 2691,219 2414,64 2138,-91 1772,-91 1169,-91 856,284 544,659 544,1381 Z m 1447,2203 z"
       transform="scale(0.015625)" /><path
       id="DejaVuSans-64"
       d="m 2906,2969 v 1894 h 575 V 0 H 2906 V 525 Q 2725,213 2448,61 2172,-91 1784,-91 1150,-91 751,415 353,922 353,1747 q 0,825 398,1331 399,506 1033,506 388,0 664,-152 277,-151 458,-463 z M 947,1747 q 0,-634 261,-995 261,-361 717,-361 456,0 718,361 263,361 263,995 0,634 -263,995 -262,361 -718,361 -456,0 -717,-361 -261,-361 -261,-995 z"
       transform="scale(0.015625)" /><path
       id="DejaVuSans-Oblique-211c"
       d="m 4006,-91 q -256,572 -256,1069 0,438 -69,722 -125,519 -372,519 -131,0 -418,-135 L 2516,1909 V 1288 Q 2516,644 2194,275 1872,-91 1434,-91 994,-91 675,275 353,644 353,1194 q 141,-38 285,-75 0,-381 200,-650 200,-272 425,-272 225,0 421,272 200,272 200,740 v 2085 q 0,465 -200,740 -196,272 -484,272 -253,0 -456,-272 -200,-268 -200,-584 0,-316 200,-584 200,-272 459,-272 l 169,-288 q -472,0 -791,366 -322,369 -322,856 0,491 322,856 319,366 791,366 506,0 822,-366 94,-109 144,-209 l 659,306 q 584,272 934,272 147,0 260,-44 393,-153 393,-706 0,-272 -203,-656 -206,-388 -597,-681 182,0 335,-153 112,-113 197,-438 100,-384 100,-794 0,-400 140,-768 l 450,209 132,-284 z M 2450,3897 q 66,-234 66,-522 V 2241 l 481,222 q 450,209 691,534 231,319 231,697 0,472 -231,572 -75,31 -172,31 -200,0 -519,-147 z"
       transform="scale(0.015625)" /><path
       id="DejaVuSans-7b"
       d="m 3272,-594 v -450 h -194 q -778,0 -1042,232 -264,231 -264,921 v 747 q 0,472 -169,653 -169,182 -612,182 H 800 v 447 h 191 q 447,0 614,179 167,180 167,646 v 750 q 0,690 264,920 264,230 1042,230 h 194 v -447 h -213 q -440,0 -575,-138 -134,-137 -134,-578 v -775 q 0,-491 -142,-713 -142,-221 -486,-299 347,-85 487,-307 141,-222 141,-709 V 122 q 0,-441 134,-578 135,-138 575,-138 z"
       transform="scale(0.015625)" /><path
       id="DejaVuSans-Oblique-48"
       d="m 1081,4666 h 635 L 1344,2753 h 2290 l 372,1913 h 635 L 3731,0 h -634 l 434,2222 H 1241 L 806,0 H 172 Z"
       transform="scale(0.015625)" /><path
       id="DejaVuSans-28"
       d="m 1984,4856 q -418,-718 -622,-1422 -203,-703 -203,-1425 0,-721 205,-1429 205,-708 620,-1424 h -500 q -468,735 -701,1444 -233,709 -233,1409 0,697 231,1403 232,707 703,1444 z"
       transform="scale(0.015625)" /><path
       id="DejaVuSans-29"
       d="m 513,4856 h 500 q 468,-737 701,-1444 233,-706 233,-1403 0,-700 -233,-1409 -233,-709 -701,-1444 H 513 q 415,716 620,1424 205,708 205,1429 0,722 -205,1425 -205,704 -620,1422 z"
       transform="scale(0.015625)" /><path
       id="DejaVuSans-Oblique-6b"
       d="m 1172,4863 h 575 L 1197,2028 3169,3500 h 747 L 1716,1825 3322,0 H 2625 L 1131,1709 800,0 H 225 Z"
       transform="scale(0.015625)" /><path
       id="DejaVuSans-7d"
       d="m 800,-594 h 219 q 437,0 570,135 133,134 133,581 v 775 q 0,487 140,709 141,222 488,307 -347,78 -488,299 -140,222 -140,713 v 775 q 0,444 -133,580 -133,136 -570,136 H 800 v 447 h 197 q 778,0 1039,-230 261,-230 261,-920 v -750 q 0,-466 168,-646 169,-179 613,-179 h 194 v -447 h -194 q -444,0 -613,-182 -168,-181 -168,-653 V 109 q 0,-690 -261,-921 -261,-232 -1039,-232 H 800 Z"
       transform="scale(0.015625)" /><path
       id="DejaVuSans-33"
       d="m 2597,2516 q 453,-97 707,-404 255,-306 255,-756 0,-690 -475,-1069 -475,-378 -1350,-378 -293,0 -604,58 -311,58 -642,174 v 609 q 262,-153 574,-231 313,-78 654,-78 593,0 904,234 311,234 311,681 0,413 -289,645 -289,233 -804,233 h -544 v 519 h 569 q 465,0 712,186 247,186 247,536 0,359 -255,551 -254,193 -729,193 -260,0 -557,-57 -297,-56 -653,-174 v 562 q 360,100 674,150 314,50 592,50 719,0 1137,-327 419,-326 419,-882 0,-388 -222,-655 -222,-267 -631,-370 z"
       transform="scale(0.015625)" /><path
       id="DejaVuSans-Oblique-2111"
       d="m 331,281 438,516 q 347,122 712,122 178,0 591,-250 450,-269 553,-269 378,0 691,428 222,303 222,538 0,393 -194,743 -250,457 -250,797 0,313 250,813 l 665,437 q -250,-434 -250,-812 0,-335 250,-797 166,-306 166,-894 0,-294 -631,-1050 -581,-694 -1338,-694 -168,0 -572,247 -415,250 -590,250 -294,0 -713,-125 z m 763,4294 q 340,175 781,175 384,0 781,-153 382,-147 782,-147 390,0 781,181 l -625,-531 q -435,-181 -781,-181 -447,0 -782,153 -334,153 -781,153 -381,0 -781,-181 z"
       transform="scale(0.015625)" /><clipPath
       id="p60c6811ae4"><rect
         x="50.458752"
         y="7.1999998"
         width="189.495"
         height="115.72"
         id="rect1747" /></clipPath><clipPath
       id="p65df37a9b3"><rect
         x="259.82376"
         y="7.1999998"
         width="189.495"
         height="115.72"
         id="rect1750" /></clipPath></defs><g
     inkscape:label="Capa 1"
     inkscape:groupmode="layer"
     id="layer1"
     transform="translate(-8.7214212,-42.414696)"><rect
       style="fill:#ffffff;stroke:none;stroke-width:0.172254"
       id="rect2713"
       width="172.41609"
       height="58.144192"
       x="8.7214212"
       y="42.414696" /><g
       id="patch_1"
       transform="matrix(0.35277778,0,0,0.35277778,10.393532,44.041684)"><path
         d="M 0,156.605 H 456.51875 V 0 H 0 Z"
         style="fill:#ffffff"
         id="path1197" /></g><g
       id="axes_1"
       transform="matrix(0.35277778,0,0,0.35277778,10.393532,44.041684)"><g
         id="patch_2"><path
           d="m 50.45875,122.92 h 189.495 V 7.2 h -189.495 z"
           style="fill:#ffffff"
           id="path1200" /></g><g
         id="matplotlib.axis_1"><g
           id="xtick_1"><g
             id="line2d_1"><defs
               id="defs1204"><path
                 id="path1798"
                 d="M 0,0 V 3.5"
                 style="stroke:#000000;stroke-width:0.8" /></defs><g
               id="g1208"><use
                 xlink:href="#m3a52a458e5"
                 x="59.054932"
                 y="122.92"
                 style="stroke:#000000;stroke-width:0.8"
                 id="use1206" /></g></g><g
             id="text_1"><!-- 0.0 --><g
               transform="matrix(0.08,0,0,-0.08,52.693681,135.99875)"
               id="g1221"><defs
                 id="defs1213"><path
                   id="path1804"
                   d="m 2034,4250 q -487,0 -733,-480 -245,-479 -245,-1442 0,-959 245,-1439 246,-480 733,-480 491,0 736,480 246,480 246,1439 0,963 -246,1442 -245,480 -736,480 z m 0,500 q 785,0 1199,-621 414,-620 414,-1801 0,-1178 -414,-1799 -414,-620 -1199,-620 -784,0 -1198,620 -414,621 -414,1799 0,1181 414,1801 414,621 1198,621 z"
                   transform="scale(0.015625)" /><path
                   id="path1806"
                   d="m 684,794 h 660 V 0 H 684 Z"
                   transform="scale(0.015625)" /></defs><use
                 xlink:href="#DejaVuSans-30"
                 id="use1215" /><use
                 xlink:href="#DejaVuSans-2e"
                 transform="translate(63.623047)"
                 id="use1217" /><use
                 xlink:href="#DejaVuSans-30"
                 transform="translate(95.410156)"
                 id="use1219" /></g></g></g><g
           id="xtick_2"><g
             id="line2d_2"><g
               id="g1227"><use
                 xlink:href="#m3a52a458e5"
                 x="93.512016"
                 y="122.92"
                 style="stroke:#000000;stroke-width:0.8"
                 id="use1225" /></g></g><g
             id="text_2"><!-- 0.2 --><g
               transform="matrix(0.08,0,0,-0.08,87.150763,135.99875)"
               id="g1239"><defs
                 id="defs1231"><path
                   id="path1818"
                   d="M 1228,531 H 3431 V 0 H 469 v 531 q 359,372 979,998 621,627 780,809 303,340 423,576 121,236 121,464 0,372 -261,606 -261,235 -680,235 -297,0 -627,-103 -329,-103 -704,-313 v 638 q 381,153 712,231 332,78 607,78 725,0 1156,-363 431,-362 431,-968 0,-288 -108,-546 -107,-257 -392,-607 -78,-91 -497,-524 Q 1991,1309 1228,531 Z"
                   transform="scale(0.015625)" /></defs><use
                 xlink:href="#DejaVuSans-30"
                 id="use1233" /><use
                 xlink:href="#DejaVuSans-2e"
                 transform="translate(63.623047)"
                 id="use1235" /><use
                 xlink:href="#DejaVuSans-32"
                 transform="translate(95.410156)"
                 id="use1237" /></g></g></g><g
           id="xtick_3"><g
             id="line2d_3"><g
               id="g1245"><use
                 xlink:href="#m3a52a458e5"
                 x="127.96909"
                 y="122.92"
                 style="stroke:#000000;stroke-width:0.8"
                 id="use1243" /></g></g><g
             id="text_3"><!-- 0.4 --><g
               transform="matrix(0.08,0,0,-0.08,121.60784,135.99875)"
               id="g1257"><defs
                 id="defs1249"><path
                   id="path1830"
                   d="M 2419,4116 825,1625 h 1594 z m -166,550 h 794 V 1625 h 666 V 1100 H 3047 V 0 H 2419 V 1100 H 313 v 609 z"
                   transform="scale(0.015625)" /></defs><use
                 xlink:href="#DejaVuSans-30"
                 id="use1251" /><use
                 xlink:href="#DejaVuSans-2e"
                 transform="translate(63.623047)"
                 id="use1253" /><use
                 xlink:href="#DejaVuSans-34"
                 transform="translate(95.410156)"
                 id="use1255" /></g></g></g><g
           id="xtick_4"><g
             id="line2d_4"><g
               id="g1263"><use
                 xlink:href="#m3a52a458e5"
                 x="162.42618"
                 y="122.92"
                 style="stroke:#000000;stroke-width:0.8"
                 id="use1261" /></g></g><g
             id="text_4"><!-- 0.6 --><g
               transform="matrix(0.08,0,0,-0.08,156.06493,135.99875)"
               id="g1275"><defs
                 id="defs1267"><path
                   id="path1842"
                   d="m 2113,2584 q -425,0 -674,-291 -248,-290 -248,-796 0,-503 248,-796 249,-292 674,-292 425,0 673,292 248,293 248,796 0,506 -248,796 -248,291 -673,291 z m 1253,1979 v -575 q -238,112 -480,171 -242,60 -480,60 -625,0 -955,-422 -329,-422 -376,-1275 184,272 462,417 279,145 613,145 703,0 1111,-427 408,-426 408,-1160 0,-719 -425,-1154 -425,-434 -1131,-434 -810,0 -1238,620 -428,621 -428,1799 0,1106 525,1764 525,658 1409,658 238,0 480,-47 242,-47 505,-140 z"
                   transform="scale(0.015625)" /></defs><use
                 xlink:href="#DejaVuSans-30"
                 id="use1269" /><use
                 xlink:href="#DejaVuSans-2e"
                 transform="translate(63.623047)"
                 id="use1271" /><use
                 xlink:href="#DejaVuSans-36"
                 transform="translate(95.410156)"
                 id="use1273" /></g></g></g><g
           id="xtick_5"><g
             id="line2d_5"><g
               id="g1281"><use
                 xlink:href="#m3a52a458e5"
                 x="196.88326"
                 y="122.92"
                 style="stroke:#000000;stroke-width:0.8"
                 id="use1279" /></g></g><g
             id="text_5"><!-- 0.8 --><g
               transform="matrix(0.08,0,0,-0.08,190.52201,135.99875)"
               id="g1293"><defs
                 id="defs1285"><path
                   id="path1854"
                   d="m 2034,2216 q -450,0 -708,-241 -257,-241 -257,-662 0,-422 257,-663 258,-241 708,-241 450,0 709,242 260,243 260,662 0,421 -258,662 -257,241 -711,241 z m -631,268 q -406,100 -633,378 -226,279 -226,679 0,559 398,884 399,325 1092,325 697,0 1094,-325 397,-325 397,-884 0,-400 -227,-679 -226,-278 -629,-378 456,-106 710,-416 255,-309 255,-755 Q 3634,634 3220,271 2806,-91 2034,-91 1263,-91 848,271 434,634 434,1313 q 0,446 256,755 257,310 713,416 z m -231,997 q 0,-362 226,-565 227,-203 636,-203 407,0 636,203 230,203 230,565 0,363 -230,566 -229,203 -636,203 -409,0 -636,-203 -226,-203 -226,-566 z"
                   transform="scale(0.015625)" /></defs><use
                 xlink:href="#DejaVuSans-30"
                 id="use1287" /><use
                 xlink:href="#DejaVuSans-2e"
                 transform="translate(63.623047)"
                 id="use1289" /><use
                 xlink:href="#DejaVuSans-38"
                 transform="translate(95.410156)"
                 id="use1291" /></g></g></g><g
           id="xtick_6"><g
             id="line2d_6"><g
               id="g1299"><use
                 xlink:href="#m3a52a458e5"
                 x="231.34035"
                 y="122.92"
                 style="stroke:#000000;stroke-width:0.8"
                 id="use1297" /></g></g><g
             id="text_6"><!-- 1.0 --><g
               transform="matrix(0.08,0,0,-0.08,224.97909,135.99875)"
               id="g1311"><defs
                 id="defs1303"><path
                   id="path1866"
                   d="M 794,531 H 1825 V 4091 L 703,3866 v 575 l 1116,225 h 631 V 531 H 3481 V 0 H 794 Z"
                   transform="scale(0.015625)" /></defs><use
                 xlink:href="#DejaVuSans-31"
                 id="use1305" /><use
                 xlink:href="#DejaVuSans-2e"
                 transform="translate(63.623047)"
                 id="use1307" /><use
                 xlink:href="#DejaVuSans-30"
                 transform="translate(95.410156)"
                 id="use1309" /></g></g></g><g
           id="text_7"><!-- $r$ --><g
             transform="matrix(0.08,0,0,-0.08,143.52625,147.74125)"
             id="g1320"><defs
               id="defs1316"><path
                 id="path1875"
                 d="m 2853,2969 q -87,47 -200,72 -112,25 -240,25 -460,0 -804,-349 -343,-348 -456,-933 L 800,0 H 225 l 684,3500 h 575 l -109,-544 q 228,303 545,465 318,163 677,163 94,0 184,-11 91,-10 182,-35 z"
                 transform="scale(0.015625)" /></defs><use
               xlink:href="#DejaVuSans-Oblique-72"
               id="use1318" /></g></g></g><g
         id="matplotlib.axis_2"><g
           id="ytick_1"><g
             id="line2d_7"><defs
               id="defs1325"><path
                 id="path1882"
                 d="M 0,0 H -3.5"
                 style="stroke:#000000;stroke-width:0.8" /></defs><g
               id="g1329"><use
                 xlink:href="#m2958f99c69"
                 x="50.458752"
                 y="106.20432"
                 style="stroke:#000000;stroke-width:0.8"
                 id="use1327" /></g></g><g
             id="text_8"><!-- −0.25 --><g
               transform="matrix(0.08,0,0,-0.08,18.9425,109.2437)"
               id="g1346"><defs
                 id="defs1334"><path
                   id="path1888"
                   d="M 678,2272 H 4684 V 1741 H 678 Z"
                   transform="scale(0.015625)" /><path
                   id="path1890"
                   d="M 691,4666 H 3169 V 4134 H 1269 V 2991 q 137,47 274,70 138,23 276,23 781,0 1237,-428 457,-428 457,-1159 Q 3513,744 3044,326 2575,-91 1722,-91 1428,-91 1123,-41 819,9 494,109 v 635 q 281,-153 581,-228 300,-75 634,-75 541,0 856,284 316,284 316,772 0,487 -316,771 -315,285 -856,285 -253,0 -505,-56 -251,-56 -513,-175 z"
                   transform="scale(0.015625)" /></defs><use
                 xlink:href="#DejaVuSans-2212"
                 id="use1336" /><use
                 xlink:href="#DejaVuSans-30"
                 transform="translate(83.789062)"
                 id="use1338" /><use
                 xlink:href="#DejaVuSans-2e"
                 transform="translate(147.41211)"
                 id="use1340" /><use
                 xlink:href="#DejaVuSans-32"
                 transform="translate(179.19922)"
                 id="use1342" /><use
                 xlink:href="#DejaVuSans-35"
                 transform="translate(242.82227)"
                 id="use1344" /></g></g></g><g
           id="ytick_2"><g
             id="line2d_8"><g
               id="g1352"><use
                 xlink:href="#m2958f99c69"
                 x="50.458752"
                 y="87.455444"
                 style="stroke:#000000;stroke-width:0.8"
                 id="use1350" /></g></g><g
             id="text_9"><!-- 0.00 --><g
               transform="matrix(0.08,0,0,-0.08,25.64625,90.494818)"
               id="g1363"><use
                 xlink:href="#DejaVuSans-30"
                 id="use1355" /><use
                 xlink:href="#DejaVuSans-2e"
                 transform="translate(63.623047)"
                 id="use1357" /><use
                 xlink:href="#DejaVuSans-30"
                 transform="translate(95.410156)"
                 id="use1359" /><use
                 xlink:href="#DejaVuSans-30"
                 transform="translate(159.0332)"
                 id="use1361" /></g></g></g><g
           id="ytick_3"><g
             id="line2d_9"><g
               id="g1369"><use
                 xlink:href="#m2958f99c69"
                 x="50.458752"
                 y="68.706566"
                 style="stroke:#000000;stroke-width:0.8"
                 id="use1367" /></g></g><g
             id="text_10"><!-- 0.25 --><g
               transform="matrix(0.08,0,0,-0.08,25.64625,71.745939)"
               id="g1380"><use
                 xlink:href="#DejaVuSans-30"
                 id="use1372" /><use
                 xlink:href="#DejaVuSans-2e"
                 transform="translate(63.623047)"
                 id="use1374" /><use
                 xlink:href="#DejaVuSans-32"
                 transform="translate(95.410156)"
                 id="use1376" /><use
                 xlink:href="#DejaVuSans-35"
                 transform="translate(159.0332)"
                 id="use1378" /></g></g></g><g
           id="ytick_4"><g
             id="line2d_10"><g
               id="g1386"><use
                 xlink:href="#m2958f99c69"
                 x="50.458752"
                 y="49.957684"
                 style="stroke:#000000;stroke-width:0.8"
                 id="use1384" /></g></g><g
             id="text_11"><!-- 0.50 --><g
               transform="matrix(0.08,0,0,-0.08,25.64625,52.997059)"
               id="g1397"><use
                 xlink:href="#DejaVuSans-30"
                 id="use1389" /><use
                 xlink:href="#DejaVuSans-2e"
                 transform="translate(63.623047)"
                 id="use1391" /><use
                 xlink:href="#DejaVuSans-35"
                 transform="translate(95.410156)"
                 id="use1393" /><use
                 xlink:href="#DejaVuSans-30"
                 transform="translate(159.0332)"
                 id="use1395" /></g></g></g><g
           id="ytick_5"><g
             id="line2d_11"><g
               id="g1403"><use
                 xlink:href="#m2958f99c69"
                 x="50.458752"
                 y="31.208805"
                 style="stroke:#000000;stroke-width:0.8"
                 id="use1401" /></g></g><g
             id="text_12"><!-- 0.75 --><g
               transform="matrix(0.08,0,0,-0.08,25.64625,34.24818)"
               id="g1417"><defs
                 id="defs1407"><path
                   id="path1934"
                   d="M 525,4666 H 3525 V 4397 L 1831,0 H 1172 L 2766,4134 H 525 Z"
                   transform="scale(0.015625)" /></defs><use
                 xlink:href="#DejaVuSans-30"
                 id="use1409" /><use
                 xlink:href="#DejaVuSans-2e"
                 transform="translate(63.623047)"
                 id="use1411" /><use
                 xlink:href="#DejaVuSans-37"
                 transform="translate(95.410156)"
                 id="use1413" /><use
                 xlink:href="#DejaVuSans-35"
                 transform="translate(159.0332)"
                 id="use1415" /></g></g></g><g
           id="ytick_6"><g
             id="line2d_12"><g
               id="g1423"><use
                 xlink:href="#m2958f99c69"
                 x="50.458752"
                 y="12.459925"
                 style="stroke:#000000;stroke-width:0.8"
                 id="use1421" /></g></g><g
             id="text_13"><!-- 1.00 --><g
               transform="matrix(0.08,0,0,-0.08,25.64625,15.4993)"
               id="g1434"><use
                 xlink:href="#DejaVuSans-31"
                 id="use1426" /><use
                 xlink:href="#DejaVuSans-2e"
                 transform="translate(63.623047)"
                 id="use1428" /><use
                 xlink:href="#DejaVuSans-30"
                 transform="translate(95.410156)"
                 id="use1430" /><use
                 xlink:href="#DejaVuSans-30"
                 transform="translate(159.0332)"
                 id="use1432" /></g></g></g><g
           id="text_14"><!-- Amplitud --><g
             transform="matrix(0,-0.08,-0.08,0,13.27875,83.096875)"
             id="g1464"><defs
               id="defs1446"><path
                 id="path1954"
                 d="M 2188,4044 1331,1722 h 1716 z m -357,622 h 716 L 4325,0 H 3669 L 3244,1197 H 1141 L 716,0 H 50 Z"
                 transform="scale(0.015625)" /><path
                 id="path1956"
                 d="m 3328,2828 q 216,388 516,572 300,184 706,184 547,0 844,-383 297,-382 297,-1088 V 0 h -578 v 2094 q 0,503 -179,746 -178,244 -543,244 -447,0 -707,-297 -259,-296 -259,-809 V 0 h -578 v 2094 q 0,506 -178,748 -178,242 -550,242 -441,0 -701,-298 -259,-298 -259,-808 V 0 H 581 v 3500 h 578 v -544 q 197,322 472,475 275,153 653,153 382,0 649,-194 267,-193 395,-562 z"
                 transform="scale(0.015625)" /><path
                 id="path1958"
                 d="M 1159,525 V -1331 H 581 v 4831 h 578 v -531 q 182,312 458,463 277,152 661,152 638,0 1036,-506 399,-506 399,-1331 0,-825 -399,-1332 -398,-506 -1036,-506 -384,0 -661,152 -276,152 -458,464 z m 1957,1222 q 0,634 -261,995 -261,361 -717,361 -457,0 -718,-361 -261,-361 -261,-995 0,-634 261,-995 261,-361 718,-361 456,0 717,361 261,361 261,995 z"
                 transform="scale(0.015625)" /><path
                 id="path1960"
                 d="m 603,4863 h 575 V 0 H 603 Z"
                 transform="scale(0.015625)" /><path
                 id="path1962"
                 d="m 603,3500 h 575 V 0 H 603 Z m 0,1363 h 575 V 4134 H 603 Z"
                 transform="scale(0.015625)" /><path
                 id="path1964"
                 d="M 1172,4494 V 3500 H 2356 V 3053 H 1172 V 1153 q 0,-428 117,-550 117,-122 477,-122 h 590 V 0 H 1766 Q 1100,0 847,248 594,497 594,1153 V 3053 H 172 v 447 h 422 v 994 z"
                 transform="scale(0.015625)" /><path
                 id="path1966"
                 d="m 544,1381 v 2119 h 575 V 1403 q 0,-497 193,-746 194,-248 582,-248 465,0 735,297 271,297 271,810 v 1984 h 575 V 0 H 2900 V 538 Q 2691,219 2414,64 2138,-91 1772,-91 1169,-91 856,284 544,659 544,1381 Z m 1447,2203 z"
                 transform="scale(0.015625)" /><path
                 id="path1968"
                 d="m 2906,2969 v 1894 h 575 V 0 H 2906 V 525 Q 2725,213 2448,61 2172,-91 1784,-91 1150,-91 751,415 353,922 353,1747 q 0,825 398,1331 399,506 1033,506 388,0 664,-152 277,-151 458,-463 z M 947,1747 q 0,-634 261,-995 261,-361 717,-361 456,0 718,361 263,361 263,995 0,634 -263,995 -262,361 -718,361 -456,0 -717,-361 -261,-361 -261,-995 z"
                 transform="scale(0.015625)" /></defs><use
               xlink:href="#DejaVuSans-41"
               id="use1448" /><use
               xlink:href="#DejaVuSans-6d"
               transform="translate(68.408203)"
               id="use1450" /><use
               xlink:href="#DejaVuSans-70"
               transform="translate(165.82031)"
               id="use1452" /><use
               xlink:href="#DejaVuSans-6c"
               transform="translate(229.29687)"
               id="use1454" /><use
               xlink:href="#DejaVuSans-69"
               transform="translate(257.08008)"
               id="use1456" /><use
               xlink:href="#DejaVuSans-74"
               transform="translate(284.86328)"
               id="use1458" /><use
               xlink:href="#DejaVuSans-75"
               transform="translate(324.07227)"
               id="use1460" /><use
               xlink:href="#DejaVuSans-64"
               transform="translate(387.45117)"
               id="use1462" /></g></g></g><g
         id="line2d_13"><path
           d="m 59.072159,12.46 0.689763,0.126161 0.689762,0.365876 0.689763,0.603834 0.862203,1.084892 0.862203,1.443949 1.034644,2.19128 1.207084,3.158347 1.379525,4.345854 1.551965,5.728004 1.724407,7.244032 2.241728,10.458721 3.793693,19.013922 3.448813,16.83773 2.069287,9.096736 1.724407,6.693882 1.551965,5.18914 1.379525,3.86752 1.207085,2.76708 1.034643,1.89451 1.034644,1.44452 0.862203,0.85748 0.862203,0.54354 0.689763,0.21108 0.689762,0.0153 0.689763,-0.17646 0.862203,-0.48265 0.862203,-0.76284 1.034644,-1.26558 1.034643,-1.6212 1.207085,-2.29858 1.379525,-3.09508 1.724405,-4.43612 2.41417,-6.921712 5.69054,-16.636389 1.89685,-4.75658 1.55196,-3.340208 1.37953,-2.473356 1.20708,-1.740448 1.03465,-1.157135 1.03464,-0.836872 0.8622,-0.448282 0.86221,-0.220574 0.8622,0.006 0.8622,0.229325 0.8622,0.447287 1.03465,0.813952 1.03464,1.100767 1.20709,1.619806 1.37952,2.247215 1.55197,2.955079 2.06928,4.468864 3.62126,8.513473 2.93149,6.672182 1.89684,3.830752 1.55197,2.703704 1.37953,2.0089 1.20708,1.41652 1.20709,1.07404 1.03464,0.63585 1.03464,0.36667 1.03465,0.0955 0.8622,-0.12634 1.03464,-0.39414 1.03465,-0.65039 1.20708,-1.06629 1.20709,-1.37346 1.37952,-1.90645 1.72441,-2.809127 2.06928,-3.837033 3.96614,-7.968922 2.75905,-5.290267 1.89684,-3.195453 1.55197,-2.226104 1.37953,-1.626916 1.20708,-1.121129 1.20708,-0.819118 1.03465,-0.451984 1.03464,-0.216387 1.03465,0.02017 1.03464,0.254309 1.03464,0.482744 1.20709,0.839872 1.20708,1.119227 1.37953,1.589495 1.55196,2.130741 1.89685,2.993174 2.75905,4.822341 4.48345,7.845444 2.06929,3.137785 1.72441,2.197881 1.37952,1.425094 1.20709,0.975013 1.20708,0.70349 1.03465,0.37814 1.03464,0.16636 1.03464,-0.0463 1.03465,-0.25668 1.20708,-0.5583 1.20709,-0.82433 1.37952,-1.244232 1.55197,-1.743061 1.7244,-2.292317 2.24173,-3.386234 7.41495,-11.59637 1.7244,-2.159685 1.55197,-1.607518 1.37952,-1.120175 1.20709,-0.720034 1.20708,-0.464232 1.20709,-0.20123 1.03464,0.03853 1.20709,0.288692 1.20708,0.543885 0.17244,0.09787 v 0"
           clip-path="url(#p60c6811ae4)"
           style="fill:none;stroke:#008000;stroke-width:1.5;stroke-linecap:square"
           id="path1468" /></g><g
         id="patch_3"><path
           d="M 50.45875,122.92 V 7.2"
           style="fill:none;stroke:#000000;stroke-width:0.8;stroke-linecap:square;stroke-linejoin:miter"
           id="path1471" /></g><g
         id="patch_4"><path
           d="M 239.95375,122.92 V 7.2"
           style="fill:none;stroke:#000000;stroke-width:0.8;stroke-linecap:square;stroke-linejoin:miter"
           id="path1474" /></g><g
         id="patch_5"><path
           d="m 50.45875,122.92 h 189.495"
           style="fill:none;stroke:#000000;stroke-width:0.8;stroke-linecap:square;stroke-linejoin:miter"
           id="path1477" /></g><g
         id="patch_6"><path
           d="m 50.45875,7.2 h 189.495"
           style="fill:none;stroke:#000000;stroke-width:0.8;stroke-linecap:square;stroke-linejoin:miter"
           id="path1480" /></g><g
         id="legend_1"><g
           id="patch_7"><path
             d="m 163.15375,27.92 h 71.2 q 1.6,0 1.6,-1.6 V 12.8 q 0,-1.6 -1.6,-1.6 h -71.2 q -1.6,0 -1.6,1.6 v 13.52 q 0,1.6 1.6,1.6 z"
             style="opacity:0.8;fill:#ffffff;stroke:#cccccc;stroke-linejoin:miter"
             id="path1483" /></g><g
           id="line2d_14"><path
             d="m 164.75375,19.6 h 8 8"
             style="fill:none;stroke:#008000;stroke-width:1.5;stroke-linecap:square"
             id="path1486" /></g><g
           id="text_15"><!-- $\Re\{H_0^{(1)}(kr)\}$ --><g
             transform="matrix(0.08,0,0,-0.08,187.15375,22.4)"
             id="g1522"><defs
               id="defs1496"><path
                 id="path1996"
                 d="m 4006,-91 q -256,572 -256,1069 0,438 -69,722 -125,519 -372,519 -131,0 -418,-135 L 2516,1909 V 1288 Q 2516,644 2194,275 1872,-91 1434,-91 994,-91 675,275 353,644 353,1194 q 141,-38 285,-75 0,-381 200,-650 200,-272 425,-272 225,0 421,272 200,272 200,740 v 2085 q 0,465 -200,740 -196,272 -484,272 -253,0 -456,-272 -200,-268 -200,-584 0,-316 200,-584 200,-272 459,-272 l 169,-288 q -472,0 -791,366 -322,369 -322,856 0,491 322,856 319,366 791,366 506,0 822,-366 94,-109 144,-209 l 659,306 q 584,272 934,272 147,0 260,-44 393,-153 393,-706 0,-272 -203,-656 -206,-388 -597,-681 182,0 335,-153 112,-113 197,-438 100,-384 100,-794 0,-400 140,-768 l 450,209 132,-284 z M 2450,3897 q 66,-234 66,-522 V 2241 l 481,222 q 450,209 691,534 231,319 231,697 0,472 -231,572 -75,31 -172,31 -200,0 -519,-147 z"
                 transform="scale(0.015625)" /><path
                 id="path1998"
                 d="m 3272,-594 v -450 h -194 q -778,0 -1042,232 -264,231 -264,921 v 747 q 0,472 -169,653 -169,182 -612,182 H 800 v 447 h 191 q 447,0 614,179 167,180 167,646 v 750 q 0,690 264,920 264,230 1042,230 h 194 v -447 h -213 q -440,0 -575,-138 -134,-137 -134,-578 v -775 q 0,-491 -142,-713 -142,-221 -486,-299 347,-85 487,-307 141,-222 141,-709 V 122 q 0,-441 134,-578 135,-138 575,-138 z"
                 transform="scale(0.015625)" /><path
                 id="path2000"
                 d="m 1081,4666 h 635 L 1344,2753 h 2290 l 372,1913 h 635 L 3731,0 h -634 l 434,2222 H 1241 L 806,0 H 172 Z"
                 transform="scale(0.015625)" /><path
                 id="path2002"
                 d="m 1984,4856 q -418,-718 -622,-1422 -203,-703 -203,-1425 0,-721 205,-1429 205,-708 620,-1424 h -500 q -468,735 -701,1444 -233,709 -233,1409 0,697 231,1403 232,707 703,1444 z"
                 transform="scale(0.015625)" /><path
                 id="path2004"
                 d="m 513,4856 h 500 q 468,-737 701,-1444 233,-706 233,-1403 0,-700 -233,-1409 -233,-709 -701,-1444 H 513 q 415,716 620,1424 205,708 205,1429 0,722 -205,1425 -205,704 -620,1422 z"
                 transform="scale(0.015625)" /><path
                 id="path2006"
                 d="m 1172,4863 h 575 L 1197,2028 3169,3500 h 747 L 1716,1825 3322,0 H 2625 L 1131,1709 800,0 H 225 Z"
                 transform="scale(0.015625)" /><path
                 id="path2008"
                 d="m 800,-594 h 219 q 437,0 570,135 133,134 133,581 v 775 q 0,487 140,709 141,222 488,307 -347,78 -488,299 -140,222 -140,713 v 775 q 0,444 -133,580 -133,136 -570,136 H 800 v 447 h 197 q 778,0 1039,-230 261,-230 261,-920 v -750 q 0,-466 168,-646 169,-179 613,-179 h 194 v -447 h -194 q -444,0 -613,-182 -168,-181 -168,-653 V 109 q 0,-690 -261,-921 -261,-232 -1039,-232 H 800 Z"
                 transform="scale(0.015625)" /></defs><use
               xlink:href="#DejaVuSans-Oblique-211c"
               transform="translate(0,0.546875)"
               id="use1498" /><use
               xlink:href="#DejaVuSans-7b"
               transform="translate(81.396484,0.546875)"
               id="use1500" /><use
               xlink:href="#DejaVuSans-Oblique-48"
               transform="translate(145.01953,0.546875)"
               id="use1502" /><use
               xlink:href="#DejaVuSans-28"
               transform="matrix(0.7,0,0,0.7,227.23161,46.8875)"
               id="use1504" /><use
               xlink:href="#DejaVuSans-31"
               transform="matrix(0.7,0,0,0.7,254.54119,46.8875)"
               id="use1506" /><use
               xlink:href="#DejaVuSans-29"
               transform="matrix(0.7,0,0,0.7,299.07732,46.8875)"
               id="use1508" /><use
               xlink:href="#DejaVuSans-30"
               transform="matrix(0.7,0,0,0.7,220.21484,-26.796875)"
               id="use1510" /><use
               xlink:href="#DejaVuSans-28"
               transform="translate(329.12126,0.546875)"
               id="use1512" /><use
               xlink:href="#DejaVuSans-Oblique-6b"
               transform="translate(368.13493,0.546875)"
               id="use1514" /><use
               xlink:href="#DejaVuSans-Oblique-72"
               transform="translate(426.04509,0.546875)"
               id="use1516" /><use
               xlink:href="#DejaVuSans-29"
               transform="translate(467.15837,0.546875)"
               id="use1518" /><use
               xlink:href="#DejaVuSans-7d"
               transform="translate(506.17204,0.546875)"
               id="use1520" /></g></g></g></g><g
       id="axes_2"
       transform="matrix(0.35277778,0,0,0.35277778,14.097701,44.041684)"><g
         id="patch_8"><path
           d="m 259.82375,122.92 h 189.495 V 7.2 h -189.495 z"
           style="fill:#ffffff"
           id="path1527" /></g><g
         id="matplotlib.axis_3"><g
           id="xtick_7"><g
             id="line2d_15"><g
               id="g1532"><use
                 xlink:href="#m3a52a458e5"
                 x="268.41992"
                 y="122.92"
                 style="stroke:#000000;stroke-width:0.8"
                 id="use1530" /></g></g><g
             id="text_16"><!-- 0.0 --><g
               transform="matrix(0.08,0,0,-0.08,262.05868,135.99875)"
               id="g1541"><use
                 xlink:href="#DejaVuSans-30"
                 id="use1535" /><use
                 xlink:href="#DejaVuSans-2e"
                 transform="translate(63.623047)"
                 id="use1537" /><use
                 xlink:href="#DejaVuSans-30"
                 transform="translate(95.410156)"
                 id="use1539" /></g></g></g><g
           id="xtick_8"><g
             id="line2d_16"><g
               id="g1547"><use
                 xlink:href="#m3a52a458e5"
                 x="302.87701"
                 y="122.92"
                 style="stroke:#000000;stroke-width:0.8"
                 id="use1545" /></g></g><g
             id="text_17"><!-- 0.2 --><g
               transform="matrix(0.08,0,0,-0.08,296.51576,135.99875)"
               id="g1556"><use
                 xlink:href="#DejaVuSans-30"
                 id="use1550" /><use
                 xlink:href="#DejaVuSans-2e"
                 transform="translate(63.623047)"
                 id="use1552" /><use
                 xlink:href="#DejaVuSans-32"
                 transform="translate(95.410156)"
                 id="use1554" /></g></g></g><g
           id="xtick_9"><g
             id="line2d_17"><g
               id="g1562"><use
                 xlink:href="#m3a52a458e5"
                 x="337.33411"
                 y="122.92"
                 style="stroke:#000000;stroke-width:0.8"
                 id="use1560" /></g></g><g
             id="text_18"><!-- 0.4 --><g
               transform="matrix(0.08,0,0,-0.08,330.97284,135.99875)"
               id="g1571"><use
                 xlink:href="#DejaVuSans-30"
                 id="use1565" /><use
                 xlink:href="#DejaVuSans-2e"
                 transform="translate(63.623047)"
                 id="use1567" /><use
                 xlink:href="#DejaVuSans-34"
                 transform="translate(95.410156)"
                 id="use1569" /></g></g></g><g
           id="xtick_10"><g
             id="line2d_18"><g
               id="g1577"><use
                 xlink:href="#m3a52a458e5"
                 x="371.79117"
                 y="122.92"
                 style="stroke:#000000;stroke-width:0.8"
                 id="use1575" /></g></g><g
             id="text_19"><!-- 0.6 --><g
               transform="matrix(0.08,0,0,-0.08,365.42993,135.99875)"
               id="g1586"><use
                 xlink:href="#DejaVuSans-30"
                 id="use1580" /><use
                 xlink:href="#DejaVuSans-2e"
                 transform="translate(63.623047)"
                 id="use1582" /><use
                 xlink:href="#DejaVuSans-36"
                 transform="translate(95.410156)"
                 id="use1584" /></g></g></g><g
           id="xtick_11"><g
             id="line2d_19"><g
               id="g1592"><use
                 xlink:href="#m3a52a458e5"
                 x="406.24826"
                 y="122.92"
                 style="stroke:#000000;stroke-width:0.8"
                 id="use1590" /></g></g><g
             id="text_20"><!-- 0.8 --><g
               transform="matrix(0.08,0,0,-0.08,399.88701,135.99875)"
               id="g1601"><use
                 xlink:href="#DejaVuSans-30"
                 id="use1595" /><use
                 xlink:href="#DejaVuSans-2e"
                 transform="translate(63.623047)"
                 id="use1597" /><use
                 xlink:href="#DejaVuSans-38"
                 transform="translate(95.410156)"
                 id="use1599" /></g></g></g><g
           id="xtick_12"><g
             id="line2d_20"><g
               id="g1607"><use
                 xlink:href="#m3a52a458e5"
                 x="440.70535"
                 y="122.92"
                 style="stroke:#000000;stroke-width:0.8"
                 id="use1605" /></g></g><g
             id="text_21"><!-- 1.0 --><g
               transform="matrix(0.08,0,0,-0.08,434.34409,135.99875)"
               id="g1616"><use
                 xlink:href="#DejaVuSans-31"
                 id="use1610" /><use
                 xlink:href="#DejaVuSans-2e"
                 transform="translate(63.623047)"
                 id="use1612" /><use
                 xlink:href="#DejaVuSans-30"
                 transform="translate(95.410156)"
                 id="use1614" /></g></g></g><g
           id="text_22"><!-- $r$ --><g
             transform="matrix(0.08,0,0,-0.08,352.89125,147.74125)"
             id="g1622"><use
               xlink:href="#DejaVuSans-Oblique-72"
               id="use1620" /></g></g></g><g
         id="matplotlib.axis_4"><g
           id="ytick_7"><g
             id="line2d_21"><g
               id="g1628"><use
                 xlink:href="#m2958f99c69"
                 x="259.82376"
                 y="116.96323"
                 style="stroke:#000000;stroke-width:0.8"
                 id="use1626" /></g></g><g
             id="text_23"><!-- −4 --><g
               transform="matrix(0.08,0,0,-0.08,241.03,120.00261)"
               id="g1635"><use
                 xlink:href="#DejaVuSans-2212"
                 id="use1631" /><use
                 xlink:href="#DejaVuSans-34"
                 transform="translate(83.789062)"
                 id="use1633" /></g></g></g><g
           id="ytick_8"><g
             id="line2d_22"><g
               id="g1641"><use
                 xlink:href="#m2958f99c69"
                 x="259.82376"
                 y="93.847008"
                 style="stroke:#000000;stroke-width:0.8"
                 id="use1639" /></g></g><g
             id="text_24"><!-- −3 --><g
               transform="matrix(0.08,0,0,-0.08,241.03,96.886381)"
               id="g1651"><defs
                 id="defs1645"><path
                   id="path2098"
                   d="m 2597,2516 q 453,-97 707,-404 255,-306 255,-756 0,-690 -475,-1069 -475,-378 -1350,-378 -293,0 -604,58 -311,58 -642,174 v 609 q 262,-153 574,-231 313,-78 654,-78 593,0 904,234 311,234 311,681 0,413 -289,645 -289,233 -804,233 h -544 v 519 h 569 q 465,0 712,186 247,186 247,536 0,359 -255,551 -254,193 -729,193 -260,0 -557,-57 -297,-56 -653,-174 v 562 q 360,100 674,150 314,50 592,50 719,0 1137,-327 419,-326 419,-882 0,-388 -222,-655 -222,-267 -631,-370 z"
                   transform="scale(0.015625)" /></defs><use
                 xlink:href="#DejaVuSans-2212"
                 id="use1647" /><use
                 xlink:href="#DejaVuSans-33"
                 transform="translate(83.789062)"
                 id="use1649" /></g></g></g><g
           id="ytick_9"><g
             id="line2d_23"><g
               id="g1657"><use
                 xlink:href="#m2958f99c69"
                 x="259.82376"
                 y="70.730782"
                 style="stroke:#000000;stroke-width:0.8"
                 id="use1655" /></g></g><g
             id="text_25"><!-- −2 --><g
               transform="matrix(0.08,0,0,-0.08,241.03,73.770157)"
               id="g1664"><use
                 xlink:href="#DejaVuSans-2212"
                 id="use1660" /><use
                 xlink:href="#DejaVuSans-32"
                 transform="translate(83.789062)"
                 id="use1662" /></g></g></g><g
           id="ytick_10"><g
             id="line2d_24"><g
               id="g1670"><use
                 xlink:href="#m2958f99c69"
                 x="259.82376"
                 y="47.614559"
                 style="stroke:#000000;stroke-width:0.8"
                 id="use1668" /></g></g><g
             id="text_26"><!-- −1 --><g
               transform="matrix(0.08,0,0,-0.08,241.03,50.653933)"
               id="g1677"><use
                 xlink:href="#DejaVuSans-2212"
                 id="use1673" /><use
                 xlink:href="#DejaVuSans-31"
                 transform="translate(83.789062)"
                 id="use1675" /></g></g></g><g
           id="ytick_11"><g
             id="line2d_25"><g
               id="g1683"><use
                 xlink:href="#m2958f99c69"
                 x="259.82376"
                 y="24.498335"
                 style="stroke:#000000;stroke-width:0.8"
                 id="use1681" /></g></g><g
             id="text_27"><!-- 0 --><g
               transform="matrix(0.08,0,0,-0.08,247.73375,27.537709)"
               id="g1688"><use
                 xlink:href="#DejaVuSans-30"
                 id="use1686" /></g></g></g></g><g
         id="line2d_26"><path
           d="m 268.43716,117.66 0.17244,-35.308751 0.34488,-15.294539 0.51732,-10.082645 0.51732,-6.053264 0.68977,-5.636207 0.8622,-5.158946 1.03464,-4.745046 1.20709,-4.397623 1.20708,-3.615675 1.37953,-3.454018 1.37952,-2.886091 1.37953,-2.404486 1.37952,-1.971273 1.37953,-1.567853 1.20708,-1.057561 1.20709,-0.776632 1.20708,-0.507175 1.20708,-0.249863 1.20709,-0.006 1.20708,0.222857 1.20709,0.43485 1.37952,0.732556 1.55197,1.08777 1.72441,1.480251 2.24172,2.240228 3.7937,4.182558 3.44881,3.676548 2.24173,2.07078 1.89684,1.453459 1.72441,1.036151 1.55197,0.676297 1.55196,0.420948 1.37953,0.156337 1.37952,-0.04645 1.55197,-0.285772 1.55196,-0.516833 1.72441,-0.817034 1.89685,-1.14768 2.41416,-1.741342 4.48346,-3.597439 3.10393,-2.351246 2.24173,-1.436998 1.89685,-0.970513 1.7244,-0.651283 1.72441,-0.410495 1.55196,-0.154935 1.55197,0.0491 1.72441,0.286637 1.7244,0.514606 1.89685,0.799213 2.24173,1.20083 2.93149,1.849745 6.3803,4.120512 2.41417,1.242753 2.06929,0.810217 1.89684,0.498443 1.72441,0.233306 1.72441,0.01799 1.7244,-0.194394 1.89685,-0.445558 2.06929,-0.733239 2.41417,-1.120148 3.10393,-1.714479 6.20786,-3.494604 2.41417,-1.081125 2.06929,-0.701325 1.89684,-0.426678 1.89685,-0.201887 1.89685,0.0292 1.89684,0.255499 2.06929,0.518387 2.24173,0.805608 2.75905,1.255002 5.17322,2.686143 3.27637,1.567722 2.41417,0.92994 2.24173,0.623339 2.06928,0.335703 1.89685,0.09104 1.89685,-0.118334 2.06928,-0.358011 2.24173,-0.630321 2.58661,-0.981542 3.44881,-1.577676 4.48346,-2.121239 v 0"
           clip-path="url(#p65df37a9b3)"
           style="fill:none;stroke:#ff0000;stroke-width:1.5;stroke-linecap:square"
           id="path1693" /></g><g
         id="patch_9"><path
           d="M 259.82375,122.92 V 7.2"
           style="fill:none;stroke:#000000;stroke-width:0.8;stroke-linecap:square;stroke-linejoin:miter"
           id="path1696" /></g><g
         id="patch_10"><path
           d="M 449.31875,122.92 V 7.2"
           style="fill:none;stroke:#000000;stroke-width:0.8;stroke-linecap:square;stroke-linejoin:miter"
           id="path1699" /></g><g
         id="patch_11"><path
           d="m 259.82375,122.92 h 189.495"
           style="fill:none;stroke:#000000;stroke-width:0.8;stroke-linecap:square;stroke-linejoin:miter"
           id="path1702" /></g><g
         id="patch_12"><path
           d="m 259.82375,7.2 h 189.495"
           style="fill:none;stroke:#000000;stroke-width:0.8;stroke-linecap:square;stroke-linejoin:miter"
           id="path1705" /></g><g
         id="legend_2"><g
           id="patch_13"><path
             d="m 373.39875,118.92 h 70.32 q 1.6,0 1.6,-1.6 V 103.8 q 0,-1.6 -1.6,-1.6 h -70.32 q -1.6,0 -1.6,1.6 v 13.52 q 0,1.6 1.6,1.6 z"
             style="opacity:0.8;fill:#ffffff;stroke:#cccccc;stroke-linejoin:miter"
             id="path1708" /></g><g
           id="line2d_27"><path
             d="m 374.99875,110.6 h 8 8"
             style="fill:none;stroke:#ff0000;stroke-width:1.5;stroke-linecap:square"
             id="path1711" /></g><g
           id="text_28"><!-- $\Im\{H_0^{(1)}(kr)\}$ --><g
             transform="matrix(0.08,0,0,-0.08,397.39875,113.4)"
             id="g1741"><defs
               id="defs1715"><path
                 id="path2144"
                 d="m 331,281 438,516 q 347,122 712,122 178,0 591,-250 450,-269 553,-269 378,0 691,428 222,303 222,538 0,393 -194,743 -250,457 -250,797 0,313 250,813 l 665,437 q -250,-434 -250,-812 0,-335 250,-797 166,-306 166,-894 0,-294 -631,-1050 -581,-694 -1338,-694 -168,0 -572,247 -415,250 -590,250 -294,0 -713,-125 z m 763,4294 q 340,175 781,175 384,0 781,-153 382,-147 782,-147 390,0 781,181 l -625,-531 q -435,-181 -781,-181 -447,0 -782,153 -334,153 -781,153 -381,0 -781,-181 z"
                 transform="scale(0.015625)" /></defs><use
               xlink:href="#DejaVuSans-Oblique-2111"
               transform="translate(0,0.546875)"
               id="use1717" /><use
               xlink:href="#DejaVuSans-7b"
               transform="translate(69.726562,0.546875)"
               id="use1719" /><use
               xlink:href="#DejaVuSans-Oblique-48"
               transform="translate(133.34961,0.546875)"
               id="use1721" /><use
               xlink:href="#DejaVuSans-28"
               transform="matrix(0.7,0,0,0.7,215.56169,46.8875)"
               id="use1723" /><use
               xlink:href="#DejaVuSans-31"
               transform="matrix(0.7,0,0,0.7,242.87126,46.8875)"
               id="use1725" /><use
               xlink:href="#DejaVuSans-29"
               transform="matrix(0.7,0,0,0.7,287.4074,46.8875)"
               id="use1727" /><use
               xlink:href="#DejaVuSans-30"
               transform="matrix(0.7,0,0,0.7,208.54492,-26.796875)"
               id="use1729" /><use
               xlink:href="#DejaVuSans-28"
               transform="translate(317.45134,0.546875)"
               id="use1731" /><use
               xlink:href="#DejaVuSans-Oblique-6b"
               transform="translate(356.46501,0.546875)"
               id="use1733" /><use
               xlink:href="#DejaVuSans-Oblique-72"
               transform="translate(414.37517,0.546875)"
               id="use1735" /><use
               xlink:href="#DejaVuSans-29"
               transform="translate(455.48845,0.546875)"
               id="use1737" /><use
               xlink:href="#DejaVuSans-7d"
               transform="translate(494.50212,0.546875)"
               id="use1739" /></g></g></g></g></g></svg>
